<svg width="24" height="38" viewBox="0 0 24 38" fill="none" xmlns="http://www.w3.org/2000/svg">
<g clip-path="url(#clip0_163_946)">
<path d="M9.27569 7.9415H1.35522L1.95787 8.54445V5.9604L1.35522 6.56334H9.27569L8.67304 5.9604V8.54445C8.67304 9.31967 9.87833 9.31967 9.87833 8.54445V5.9604C9.87589 5.80125 9.81161 5.6493 9.69912 5.53675C9.58663 5.42421 9.43476 5.3599 9.27569 5.35745H1.35522C1.19615 5.3599 1.04428 5.42421 0.931791 5.53675C0.819298 5.6493 0.755021 5.80125 0.752579 5.9604V8.54445C0.755021 8.7036 0.819298 8.85555 0.931791 8.96809C1.04428 9.08064 1.19615 9.14495 1.35522 9.1474H9.27569C10.0514 9.1474 10.0522 7.9415 9.27569 7.9415Z" fill="white"/>
<path d="M9.27569 30.5089H1.35522L1.95787 31.1118V28.5278L1.35522 29.1307H9.27569L8.67304 28.5278V31.1118C8.67304 31.887 9.87833 31.887 9.87833 31.1118V28.5278C9.87589 28.3686 9.81161 28.2167 9.69912 28.1041C9.58663 27.9916 9.43476 27.9273 9.27569 27.9248H1.35522C1.19615 27.9273 1.04428 27.9916 0.931791 28.1041C0.819298 28.2167 0.755021 28.3686 0.752579 28.5278V31.1118C0.755021 31.271 0.819298 31.4229 0.931791 31.5355C1.04428 31.648 1.19615 31.7123 1.35522 31.7148H9.27569C10.0514 31.7148 10.0522 30.5089 9.27569 30.5089Z" fill="white"/>
<path d="M3.42143 28.4417V8.63059L2.81878 9.23354H7.81212L7.20948 8.63059V28.4417L7.81212 27.8387H2.81878C2.04396 27.8387 2.04396 29.0446 2.81878 29.0446H7.81212C7.97119 29.0422 8.12306 28.9778 8.23555 28.8653C8.34805 28.7527 8.41232 28.6008 8.41476 28.4417V8.63059C8.41232 8.47144 8.34805 8.3195 8.23555 8.20695C8.12306 8.0944 7.97119 8.03009 7.81212 8.02765H2.81878C2.65972 8.03009 2.50785 8.0944 2.39535 8.20695C2.28286 8.3195 2.21858 8.47144 2.21614 8.63059V28.4417C2.21614 29.2177 3.42143 29.2186 3.42143 28.4417Z" fill="white"/>
<path d="M3.67972 3.63475C3.67972 3.31107 3.77565 2.99465 3.95539 2.72552C4.13513 2.45639 4.3906 2.24663 4.68949 2.12276C4.98839 1.99889 5.31728 1.96648 5.63458 2.02963C5.95189 2.09278 6.24335 2.24865 6.47211 2.47752C6.70088 2.7064 6.85667 2.99801 6.91978 3.31547C6.9829 3.63293 6.9505 3.96199 6.8267 4.26104C6.70289 4.56008 6.49324 4.81568 6.22424 4.9955C5.95524 5.17533 5.63899 5.27132 5.31547 5.27132C4.8831 5.26661 4.46976 5.09268 4.16401 4.78678C3.85826 4.48087 3.68442 4.06734 3.67972 3.63475C3.65992 2.85953 2.45377 2.85953 2.47443 3.63475C2.48159 4.21955 2.66589 4.78843 3.00297 5.26624C3.34006 5.74406 3.81408 6.10833 4.36243 6.31097C4.77314 6.45858 5.21232 6.50955 5.6459 6.45991C6.07948 6.41028 6.4958 6.26137 6.86257 6.02475C7.22934 5.78813 7.53669 5.47015 7.76079 5.09549C7.98489 4.72082 8.1197 4.29954 8.15478 3.86433C8.18985 3.42911 8.12424 2.99166 7.96304 2.58592C7.80183 2.18017 7.54937 1.81703 7.22523 1.52468C6.90109 1.23232 6.51399 1.0186 6.09396 0.900106C5.67393 0.78161 5.23226 0.761518 4.80322 0.841391C3.44641 1.07309 2.50973 2.28932 2.47443 3.63475C2.45377 4.41083 3.65906 4.41083 3.67972 3.63475Z" fill="white"/>
<path d="M2.81879 34.2988C2.8386 33.2652 3.46448 32.3082 4.45454 31.9517C4.93827 31.7785 5.46324 31.7569 5.95955 31.8897C6.45586 32.0225 6.89996 32.3034 7.23273 32.695C8.70146 34.4323 7.13028 37.1525 4.89533 36.764C4.31706 36.6583 3.79363 36.3545 3.415 35.9046C3.03636 35.4547 2.82616 34.8869 2.82052 34.2988C2.80588 33.5236 1.60059 33.5236 1.61523 34.2988C1.6159 35.0593 1.85055 35.8012 2.28729 36.4236C2.72403 37.0461 3.34169 37.5189 4.05637 37.7779C4.77105 38.0369 5.54809 38.0696 6.28195 37.8714C7.0158 37.6732 7.67089 37.2538 8.15822 36.6701C9.15086 35.4642 9.30669 33.7088 8.47676 32.3634C8.07453 31.7191 7.48638 31.2122 6.79004 30.9095C6.0937 30.6069 5.32195 30.5227 4.57679 30.6682C2.85495 31.0007 1.64967 32.5718 1.61695 34.2962C1.59887 35.0749 2.80416 35.0749 2.81879 34.2988Z" fill="white"/>
<path d="M5.27241 35.3902C6.65763 35.3902 6.65936 33.2368 5.27241 33.2368C3.88547 33.2368 3.88547 35.3902 5.27241 35.3902Z" fill="white"/>
<path d="M1.1951 11.5377L8.19438 14.3991L9.20165 14.8108C9.50556 14.9348 9.86112 14.6756 9.9429 14.3896C10.0419 14.045 9.82151 13.7703 9.52191 13.648L2.52263 10.7866L1.51536 10.3748C1.21145 10.2508 0.855894 10.5101 0.774107 10.796C0.675101 11.1406 0.895496 11.4153 1.1951 11.5377Z" fill="white"/>
<path d="M1.1951 15.4998L8.19438 18.3613L9.20165 18.773C9.50556 18.897 9.86112 18.6377 9.9429 18.3518C10.0419 18.0072 9.82151 17.7325 9.52191 17.6102L2.52263 14.7487L1.51536 14.337C1.21145 14.213 0.855894 14.4723 0.774107 14.7582C0.675101 15.1028 0.895496 15.3775 1.1951 15.4998Z" fill="white"/>
<path d="M1.1951 19.4621L8.19438 22.3235L9.20165 22.7352C9.50556 22.8592 9.86112 22.6 9.9429 22.314C10.0419 21.9695 9.82151 21.6947 9.52191 21.5724L2.52263 18.711L1.51536 18.2992C1.21145 18.1752 0.855894 18.4345 0.774107 18.7204C0.675101 19.065 0.895496 19.3398 1.1951 19.4621Z" fill="white"/>
<path d="M1.1951 23.4243L8.19438 26.2857L9.20165 26.6974C9.50556 26.8215 9.86112 26.5622 9.9429 26.2762C10.0419 25.9317 9.82151 25.6569 9.52191 25.5346L2.52263 22.6732L1.51536 22.2615C1.21145 22.1374 0.855894 22.3967 0.774107 22.6827C0.675101 23.0272 0.895496 23.302 1.1951 23.4243Z" fill="white"/>
<path d="M23.3087 7.9415H15.3882L15.9909 8.54445V5.9604L15.3882 6.56334H23.3087L22.706 5.9604V8.54445C22.706 9.31967 23.9113 9.31967 23.9113 8.54445V5.9604C23.9089 5.80125 23.8446 5.6493 23.7321 5.53675C23.6196 5.42421 23.4678 5.3599 23.3087 5.35745H15.3882C15.2292 5.3599 15.0773 5.42421 14.9648 5.53675C14.8523 5.6493 14.788 5.80125 14.7856 5.9604V8.54445C14.788 8.7036 14.8523 8.85555 14.9648 8.96809C15.0773 9.08064 15.2292 9.14495 15.3882 9.1474H23.3087C24.0844 9.1474 24.0852 7.9415 23.3087 7.9415Z" fill="white"/>
<path d="M23.3087 30.5089H15.3882L15.9909 31.1118V28.5278L15.3882 29.1307H23.3087L22.706 28.5278V31.1118C22.706 31.887 23.9113 31.887 23.9113 31.1118V28.5278C23.9089 28.3686 23.8446 28.2167 23.7321 28.1041C23.6196 27.9916 23.4678 27.9273 23.3087 27.9248H15.3882C15.2292 27.9273 15.0773 27.9916 14.9648 28.1041C14.8523 28.2167 14.788 28.3686 14.7856 28.5278V31.1118C14.788 31.271 14.8523 31.4229 14.9648 31.5355C15.0773 31.648 15.2292 31.7123 15.3882 31.7148H23.3087C24.0844 31.7148 24.0852 30.5089 23.3087 30.5089Z" fill="white"/>
<path d="M17.4544 28.4417V8.63059L16.8518 9.23354H21.8451L21.2425 8.63059V28.4417L21.8451 27.8387H16.8518C16.077 27.8387 16.077 29.0446 16.8518 29.0446H21.8451C22.0042 29.0422 22.1561 28.9778 22.2686 28.8653C22.3811 28.7527 22.4453 28.6008 22.4478 28.4417V8.63059C22.4453 8.47144 22.3811 8.3195 22.2686 8.20695C22.1561 8.0944 22.0042 8.03009 21.8451 8.02765H16.8518C16.6927 8.03009 16.5409 8.0944 16.4284 8.20695C16.3159 8.3195 16.2516 8.47144 16.2491 8.63059V28.4417C16.2491 29.2177 17.4544 29.2186 17.4544 28.4417Z" fill="white"/>
<path d="M17.7127 3.63475C17.7127 3.31107 17.8086 2.99465 17.9884 2.72552C18.1681 2.45639 18.4236 2.24663 18.7225 2.12276C19.0214 1.99889 19.3503 1.96648 19.6676 2.02963C19.9849 2.09278 20.2763 2.24865 20.5051 2.47752C20.7339 2.7064 20.8897 2.99801 20.9528 3.31547C21.0159 3.63293 20.9835 3.96199 20.8597 4.26104C20.7359 4.56008 20.5262 4.81568 20.2572 4.9955C19.9882 5.17533 19.672 5.27132 19.3485 5.27132C18.9161 5.26661 18.5028 5.09268 18.197 4.78678C17.8913 4.48087 17.7174 4.06734 17.7127 3.63475C17.6929 2.85953 16.4868 2.85953 16.5074 3.63475C16.5146 4.21955 16.6989 4.78843 17.036 5.26624C17.373 5.74406 17.8471 6.10833 18.3954 6.31097C18.8061 6.45858 19.2453 6.50955 19.6789 6.45991C20.1125 6.41028 20.5288 6.26137 20.8956 6.02475C21.2623 5.78813 21.5697 5.47015 21.7938 5.09549C22.0179 4.72082 22.1527 4.29954 22.1878 3.86433C22.2228 3.42911 22.1572 2.99166 21.996 2.58592C21.8348 2.18017 21.5824 1.81703 21.2582 1.52468C20.9341 1.23232 20.547 1.0186 20.127 0.900106C19.7069 0.78161 19.2653 0.761518 18.8362 0.841391C17.4794 1.07309 16.5427 2.28932 16.5074 3.63475C16.4868 4.41083 17.692 4.41083 17.7127 3.63475Z" fill="white"/>
<path d="M16.8518 34.2988C16.8716 33.2652 17.4975 32.3082 18.4875 31.9517C18.9713 31.7785 19.4962 31.7569 19.9925 31.8897C20.4889 32.0225 20.933 32.3034 21.2657 32.695C22.7345 34.4323 21.1633 37.1525 18.9283 36.764C18.3501 36.6583 17.8266 36.3545 17.448 35.9046C17.0693 35.4547 16.8591 34.8869 16.8535 34.2988C16.8389 33.5236 15.6336 33.5236 15.6482 34.2988C15.6489 35.0593 15.8835 35.8012 16.3203 36.4236C16.757 37.0461 17.3747 37.5189 18.0894 37.7779C18.804 38.0369 19.5811 38.0696 20.3149 37.8714C21.0488 37.6732 21.7039 37.2538 22.1912 36.6701C23.1839 35.4642 23.3397 33.7088 22.5098 32.3634C22.1075 31.7191 21.5194 31.2122 20.823 30.9095C20.1267 30.6069 19.3549 30.5227 18.6098 30.6682C16.8879 31.0007 15.6827 32.5718 15.6499 34.2962C15.6319 35.0749 16.8372 35.0749 16.8518 34.2988Z" fill="white"/>
<path d="M19.3054 35.3902C20.6906 35.3902 20.6923 33.2368 19.3054 33.2368C17.9185 33.2368 17.9185 35.3902 19.3054 35.3902Z" fill="white"/>
<path d="M15.2281 11.5377L22.2274 14.3991L23.2346 14.8108C23.5385 14.9348 23.8941 14.6756 23.9759 14.3896C24.0749 14.045 23.8545 13.7703 23.5549 13.648L16.5556 10.7866L15.5483 10.3748C15.2444 10.2508 14.8889 10.5101 14.8071 10.796C14.7081 11.1406 14.9285 11.4153 15.2281 11.5377Z" fill="white"/>
<path d="M15.2281 15.4998L22.2274 18.3613L23.2346 18.773C23.5385 18.897 23.8941 18.6377 23.9759 18.3518C24.0749 18.0072 23.8545 17.7325 23.5549 17.6102L16.5556 14.7487L15.5483 14.337C15.2444 14.213 14.8889 14.4723 14.8071 14.7582C14.7081 15.1028 14.9285 15.3775 15.2281 15.4998Z" fill="white"/>
<path d="M15.2281 19.4621L22.2274 22.3235L23.2346 22.7352C23.5385 22.8592 23.8941 22.6 23.9759 22.314C24.0749 21.9695 23.8545 21.6947 23.5549 21.5724L16.5556 18.711L15.5483 18.2992C15.2444 18.1752 14.8889 18.4345 14.8071 18.7204C14.7081 19.065 14.9285 19.3398 15.2281 19.4621Z" fill="white"/>
<path d="M15.2281 23.4243L22.2274 26.2857L23.2346 26.6974C23.5385 26.8215 23.8941 26.5622 23.9759 26.2762C24.0749 25.9317 23.8545 25.6569 23.5549 25.5346L16.5556 22.6732L15.5483 22.2615C15.2444 22.1374 14.8889 22.3967 14.8071 22.6827C14.7081 23.0272 14.9285 23.302 15.2281 23.4243Z" fill="white"/>
</g>
<defs>
<clipPath id="clip0_163_946">
<rect width="23.25" height="37.2" fill="white" transform="translate(0.75 0.800049)"/>
</clipPath>
</defs>
</svg>
