<svg width="277" height="106" viewBox="0 0 277 106" fill="none" xmlns="http://www.w3.org/2000/svg">
<g filter="url(#filter0_d_6_228)">
<path d="M9.70637 61.5414V58.6414L15.372 52.8H23.9316V61.5414H9.70637ZM9.70637 76V67.3414H23.9316V76H29.5972V47H12.5188L4 55.7414V76H9.70637Z" fill="#F1F1F1"/>
<path d="M48.1336 76V52.8H58.0383V47H32.4411V52.8H42.4273V76H48.1336Z" fill="#F1F1F1"/>
<path d="M66.189 76V58.6L71.8546 52.8H80.4142V76H86.0798V47H69.0014L60.4826 55.7V76H66.189Z" fill="#F1F1F1"/>
<path d="M95.4453 61.5414V58.6414L101.111 52.8H109.67V61.5414H95.4453ZM95.4453 76V67.3414H109.67V76H115.336V47H98.2577L89.7389 55.7414V76H95.4453Z" fill="#F1F1F1"/>
<path d="M125.109 76V64.4414H139.334V76H145V47H139.334V58.6414H125.109V47H119.403V76H125.109Z" fill="#F1F1F1"/>
</g>
<g filter="url(#filter1_d_6_228)">
<path d="M199.672 76V52.8H218.067V47H194V76H199.672Z" fill="#F1F1F1"/>
<path d="M224.551 61.5414V58.6414L230.183 52.8H238.691V61.5414H224.551ZM224.551 76V67.3414H238.691V76H244.323V47H227.346L218.878 55.7414V76H224.551Z" fill="#F1F1F1"/>
<path d="M270.204 76L273 73.1414V64.4414L270.204 61.5414L273 58.6414V49.9414L270.204 47H250.351L247.555 49.9414V55.7H253.228V52.8H267.368V58.6414H258.86V64.4414H267.368V70.2H253.228V67.3414H247.555V73.1414L250.351 76H270.204Z" fill="#F1F1F1"/>
</g>
<g filter="url(#filter2_d_6_228)">
<path d="M12.5493 86.674C12.5493 87.3626 12.3206 87.9316 11.863 88.381C11.4055 88.8303 10.7855 89.116 10.0031 89.2381V89.2821C10.9228 89.3797 11.6274 89.6508 12.117 90.0952C12.6111 90.5397 12.8582 91.1184 12.8582 91.8315C12.8582 92.8181 12.483 93.5971 11.7326 94.1685C10.9868 94.7399 9.95282 95.0256 8.63054 95.0256C7.15728 95.0256 5.97455 94.8327 5.08236 94.4469V92.5421C5.51244 92.7619 6.01573 92.9353 6.59222 93.0623C7.17329 93.1844 7.71547 93.2454 8.21876 93.2454C9.90706 93.2454 10.7512 92.7204 10.7512 91.6703C10.7512 91.1966 10.479 90.8327 9.93452 90.5788C9.39462 90.3248 8.59394 90.1978 7.53246 90.1978H6.59222V88.4249H7.43637C8.49786 88.4249 9.27109 88.3175 9.75608 88.1026C10.2411 87.8877 10.4836 87.5311 10.4836 87.033C10.4836 86.6667 10.3303 86.3761 10.0237 86.1612C9.72176 85.9414 9.26651 85.8315 8.65799 85.8315C7.71547 85.8315 6.80498 86.1221 5.92651 86.7033L5 85.1868C5.57192 84.7814 6.17815 84.486 6.8187 84.3004C7.45925 84.1099 8.17072 84.0147 8.9531 84.0147C10.0466 84.0147 10.9182 84.2589 11.5679 84.7473C12.2222 85.2357 12.5493 85.8779 12.5493 86.674Z" fill="#F1F1F1"/>
<path d="M20.8742 94.8791L20.1467 92.3297H16.4887L15.7612 94.8791H13.469L17.0103 84.1245H19.6114L23.1664 94.8791H20.8742ZM19.6388 90.4249C18.9663 88.1148 18.5865 86.8083 18.4996 86.5055C18.4172 86.2027 18.3577 85.9634 18.3211 85.7875C18.1701 86.4127 17.7378 87.9585 17.024 90.4249H19.6388Z" fill="#F1F1F1"/>
<path d="M32.3766 94.8791H30.2559V86.0586H26.5636V94.8791H24.4361V84.1685H32.3766V94.8791Z" fill="#F1F1F1"/>
<path d="M37.0366 89.2088H37.7366C38.3909 89.2088 38.8805 89.072 39.2053 88.7985C39.5302 88.5201 39.6926 88.1172 39.6926 87.5897C39.6926 87.0574 39.5553 86.6642 39.2808 86.4103C39.0109 86.1563 38.5854 86.0293 38.0043 86.0293H37.0366V89.2088ZM41.8407 87.5092C41.8407 88.6618 41.5021 89.5433 40.825 90.1538C40.1524 90.7643 39.1939 91.0696 37.9494 91.0696H37.0366V94.8791H34.9091V84.1685H38.1141C39.3311 84.1685 40.2554 84.4493 40.8868 85.011C41.5227 85.5678 41.8407 86.4005 41.8407 87.5092Z" fill="#F1F1F1"/>
<path d="M49.8773 94.8791L49.1498 92.3297H45.4919L44.7644 94.8791H42.4721L46.0134 84.1245H48.6145L52.1696 94.8791H49.8773ZM48.642 90.4249C47.9694 88.1148 47.5896 86.8083 47.5027 86.5055C47.4204 86.2027 47.3609 85.9634 47.3243 85.7875C47.1733 86.4127 46.7409 87.9585 46.0272 90.4249H48.642Z" fill="#F1F1F1"/>
<path d="M53.4392 84.1685H56.5619C57.9848 84.1685 59.0166 84.3858 59.6571 84.8205C60.3023 85.2503 60.6248 85.9365 60.6248 86.8791C60.6248 87.5189 60.483 88.044 60.1993 88.4542C59.9202 88.8645 59.5473 89.1111 59.0806 89.1941V89.2674C59.7166 89.4188 60.1741 89.7021 60.4532 90.1172C60.7369 90.5324 60.8788 91.0842 60.8788 91.7729C60.8788 92.7497 60.547 93.5116 59.8836 94.0586C59.2248 94.6056 58.328 94.8791 57.1933 94.8791H53.4392V84.1685ZM55.5668 88.4103H56.8021C57.3786 88.4103 57.795 88.315 58.0512 88.1245C58.312 87.9341 58.4424 87.619 58.4424 87.1795C58.4424 86.7692 58.3005 86.4762 58.0169 86.3004C57.7378 86.1197 57.294 86.0293 56.6854 86.0293H55.5668V88.4103ZM55.5668 90.2125V93.0037H56.9531C57.5387 93.0037 57.9711 92.884 58.2502 92.6447C58.5293 92.4054 58.6689 92.0391 58.6689 91.5458C58.6689 90.6569 58.0741 90.2125 56.8845 90.2125H55.5668Z" fill="#F1F1F1"/>
<path d="M71.0635 94.8791H68.6477L65.0103 89.4505V94.8791H62.8828V84.1685H65.0103V89.3553L68.6065 84.1685H70.8713L67.2133 89.3114L71.0635 94.8791Z" fill="#F1F1F1"/>
<path d="M78.4687 94.8791L77.7412 92.3297H74.0832L73.3557 94.8791H71.0635L74.6048 84.1245H77.2059L80.7609 94.8791H78.4687ZM77.2333 90.4249C76.5608 88.1148 76.181 86.8083 76.0941 86.5055C76.0117 86.2027 75.9522 85.9634 75.9156 85.7875C75.7647 86.4127 75.3323 87.9585 74.6185 90.4249H77.2333Z" fill="#F1F1F1"/>
<path d="M92.0232 84.1685V86.044H87.8093V94.8791H85.6817V84.1685H92.0232Z" fill="#F1F1F1"/>
<path d="M99.7166 94.8791L98.9891 92.3297H95.3311L94.6037 94.8791H92.3114L95.8527 84.1245H98.4538L102.009 94.8791H99.7166ZM98.4813 90.4249C97.8087 88.1148 97.4289 86.8083 97.342 86.5055C97.2597 86.2027 97.2002 85.9634 97.1636 85.7875C97.0126 86.4127 96.5802 87.9585 95.8665 90.4249H98.4813Z" fill="#F1F1F1"/>
<path d="M110.21 86.674C110.21 87.3626 109.981 87.9316 109.524 88.381C109.066 88.8303 108.446 89.116 107.664 89.2381V89.2821C108.584 89.3797 109.288 89.6508 109.778 90.0952C110.272 90.5397 110.519 91.1184 110.519 91.8315C110.519 92.8181 110.144 93.5971 109.393 94.1685C108.648 94.7399 107.614 95.0256 106.291 95.0256C104.818 95.0256 103.635 94.8327 102.743 94.4469V92.5421C103.173 92.7619 103.677 92.9353 104.253 93.0623C104.834 93.1844 105.376 93.2454 105.88 93.2454C107.568 93.2454 108.412 92.7204 108.412 91.6703C108.412 91.1966 108.14 90.8327 107.595 90.5788C107.055 90.3248 106.255 90.1978 105.193 90.1978H104.253V88.4249H105.097C106.159 88.4249 106.932 88.3175 107.417 88.1026C107.902 87.8877 108.144 87.5311 108.144 87.033C108.144 86.6667 107.991 86.3761 107.685 86.1612C107.383 85.9414 106.927 85.8315 106.319 85.8315C105.376 85.8315 104.466 86.1221 103.587 86.7033L102.661 85.1868C103.233 84.7814 103.839 84.486 104.48 84.3004C105.12 84.1099 105.832 84.0147 106.614 84.0147C107.707 84.0147 108.579 84.2589 109.229 84.7473C109.883 85.2357 110.21 85.8779 110.21 86.674Z" fill="#F1F1F1"/>
<path d="M118.734 84.1685V86.044H114.52V94.8791H112.393V84.1685H118.734Z" fill="#F1F1F1"/>
<path d="M129.392 89.5092C129.392 91.2821 128.981 92.6447 128.157 93.5971C127.333 94.5495 126.153 95.0256 124.616 95.0256C123.078 95.0256 121.898 94.5495 121.074 93.5971C120.251 92.6447 119.839 91.2772 119.839 89.4945C119.839 87.7118 120.251 86.3516 121.074 85.4139C121.902 84.4713 123.088 84 124.629 84C126.171 84 127.349 84.4737 128.164 85.4212C128.983 86.3687 129.392 87.7314 129.392 89.5092ZM122.069 89.5092C122.069 90.7057 122.282 91.6068 122.708 92.2125C123.133 92.8181 123.769 93.1209 124.616 93.1209C126.313 93.1209 127.162 91.917 127.162 89.5092C127.162 87.0965 126.318 85.8901 124.629 85.8901C123.783 85.8901 123.145 86.1954 122.715 86.8059C122.285 87.4115 122.069 88.3126 122.069 89.5092Z" fill="#F1F1F1"/>
<path d="M139.412 94.8791H137.292V86.0586H134.835L134.725 87.0403C134.441 89.536 134.19 91.2894 133.97 92.3004C133.755 93.3065 133.439 94.0147 133.023 94.4249C132.607 94.8352 132.044 95.0354 131.335 95.0256C130.95 95.0256 130.612 94.9719 130.319 94.8645V93.0037C130.584 93.1013 130.834 93.1502 131.067 93.1502C131.309 93.1502 131.502 93.033 131.643 92.7985C131.785 92.5592 131.918 92.1197 132.041 91.4799C132.17 90.8352 132.337 89.7827 132.542 88.3223C132.753 86.8571 132.931 85.4725 133.078 84.1685H139.412V94.8791Z" fill="#F1F1F1"/>
<path d="M149.014 91.5311C149.014 93.7631 147.632 94.8791 144.868 94.8791H141.945V84.1685H144.072V88.2784H144.91C146.218 88.2784 147.229 88.5617 147.943 89.1282C148.657 89.6947 149.014 90.4957 149.014 91.5311ZM144.072 93.0183H144.786C145.504 93.0183 146.031 92.8962 146.365 92.652C146.699 92.4029 146.866 92.0293 146.866 91.5311C146.866 91.0379 146.696 90.6838 146.358 90.4689C146.019 90.2491 145.438 90.1392 144.615 90.1392H144.072V93.0183Z" fill="#F1F1F1"/>
<path d="M149.727 92.989H150.503C151.166 91.5726 151.69 90.1587 152.075 88.7473C152.459 87.3309 152.745 85.8046 152.933 84.1685H158.78V92.989H160.118V98H158.066V94.8791H151.78V98H149.727V92.989ZM154.621 86.0586C154.474 87.177 154.23 88.3614 153.886 89.6117C153.548 90.862 153.166 91.9878 152.74 92.989H156.659V86.0586H154.621Z" fill="#F1F1F1"/>
<path d="M167.448 94.8791H161.669V84.1685H167.448V86.0293H163.797V88.381H167.194V90.2418H163.797V93.0037H167.448V94.8791Z" fill="#F1F1F1"/>
<path d="M171.675 89.2088H172.375C173.03 89.2088 173.519 89.072 173.844 88.7985C174.169 88.5201 174.331 88.1172 174.331 87.5897C174.331 87.0574 174.194 86.6642 173.92 86.4103C173.65 86.1563 173.224 86.0293 172.643 86.0293H171.675V89.2088ZM176.48 87.5092C176.48 88.6618 176.141 89.5433 175.464 90.1538C174.791 90.7643 173.833 91.0696 172.588 91.0696H171.675V94.8791H169.548V84.1685H172.753C173.97 84.1685 174.894 84.4493 175.526 85.011C176.162 85.5678 176.48 86.4005 176.48 87.5092Z" fill="#F1F1F1"/>
<path d="M187.481 89.5092C187.481 91.2821 187.069 92.6447 186.246 93.5971C185.422 94.5495 184.242 95.0256 182.704 95.0256C181.167 95.0256 179.987 94.5495 179.163 93.5971C178.339 92.6447 177.928 91.2772 177.928 89.4945C177.928 87.7118 178.339 86.3516 179.163 85.4139C179.991 84.4713 181.176 84 182.718 84C184.26 84 185.438 84.4737 186.253 85.4212C187.071 86.3687 187.481 87.7314 187.481 89.5092ZM180.158 89.5092C180.158 90.7057 180.371 91.6068 180.796 92.2125C181.222 92.8181 181.858 93.1209 182.704 93.1209C184.402 93.1209 185.251 91.917 185.251 89.5092C185.251 87.0965 184.406 85.8901 182.718 85.8901C181.872 85.8901 181.233 86.1954 180.803 86.8059C180.373 87.4115 180.158 88.3126 180.158 89.5092Z" fill="#F1F1F1"/>
<path d="M189.56 84.1685H192.683C194.106 84.1685 195.138 84.3858 195.778 84.8205C196.424 85.2503 196.746 85.9365 196.746 86.8791C196.746 87.5189 196.604 88.044 196.321 88.4542C196.041 88.8645 195.669 89.1111 195.202 89.1941V89.2674C195.838 89.4188 196.295 89.7021 196.574 90.1172C196.858 90.5324 197 91.0842 197 91.7729C197 92.7497 196.668 93.5116 196.005 94.0586C195.346 94.6056 194.449 94.8791 193.315 94.8791H189.56V84.1685ZM191.688 88.4103H192.923C193.5 88.4103 193.916 88.315 194.172 88.1245C194.433 87.9341 194.564 87.619 194.564 87.1795C194.564 86.7692 194.422 86.4762 194.138 86.3004C193.859 86.1197 193.415 86.0293 192.807 86.0293H191.688V88.4103ZM191.688 90.2125V93.0037H193.074C193.66 93.0037 194.092 92.884 194.371 92.6447C194.651 92.4054 194.79 92.0391 194.79 91.5458C194.79 90.6569 194.195 90.2125 193.006 90.2125H191.688Z" fill="#F1F1F1"/>
</g>
<path d="M173.457 76V44.8H187V37H152V44.8H165.654V76H173.457Z" fill="#2194FF"/>
<path fill-rule="evenodd" clip-rule="evenodd" d="M172.75 6.42341C171.613 7.35991 171.311 9.0497 171.842 11.4928C171.717 10.0654 172.322 8.92521 173.657 8.07231C174.545 7.27188 174.848 5.73951 174.566 3.47519C174.329 4.82792 173.723 5.81287 172.75 6.43009V6.42341ZM165.984 28.4645C164.819 27.2743 164.149 25.712 164.102 24.0756C164.055 22.4393 164.634 20.8436 165.73 19.5931C166.811 18.4369 166.996 17.1714 166.283 15.7964C167.347 16.3647 167.865 17.7704 167.836 20.0133C169.578 16.5377 169.508 13.6326 167.625 11.298C168.357 11.4847 169.075 11.7201 169.774 12.0024C169.547 10.7288 169.08 9.64691 168.373 8.75666C166.969 6.10724 167.055 3.18837 168.629 0C167.957 2.06599 168.297 4.02705 169.65 5.88315C170.967 7.76593 171.278 9.92662 170.583 12.3653C174.788 14.4312 176.049 18.1252 174.364 23.4472C175.711 22.5578 176.206 20.9837 175.848 18.7247C177.66 22.0233 177.806 24.7167 176.285 26.805C177.43 25.4698 178.072 23.7999 178.106 22.0678C178.159 19.7981 177.695 17.9923 176.714 16.6502C175.35 15.0494 174.537 13.7086 174.274 12.6281C173.678 8.66328 174.624 5.82665 177.112 4.11818C174.899 6.6084 175.037 9.93284 177.527 14.0915C177.118 11.7569 177.71 10.3259 179.303 9.79855C177.699 10.4327 177.854 13.5783 179.768 19.2356C180.295 21.5597 179.917 23.9895 178.707 26.0624C177.496 28.1354 175.538 29.7067 173.204 30.4773C170.87 31.2479 168.324 31.164 166.05 30.2416C163.777 29.3192 161.934 27.6227 160.873 25.4749C159.385 22.0687 159.8 17.9642 162.118 13.1617C163.658 10.6403 164.452 7.6761 164.501 4.26894C164.235 2.61918 163.674 1.29491 162.818 0.296154C165.487 2.53557 166.914 4.98623 167.098 7.64809C167.288 10.0627 166.655 12.2061 165.197 14.0782C163.217 16.732 162.252 19.7968 162.303 23.2724C162.502 24.3385 162.933 25.3518 163.567 26.2456C164.202 27.1394 165.025 27.8934 165.984 28.4579V28.4645ZM172.456 29.2649C174.385 27.6587 174.509 25.6381 172.828 23.203C171.453 21.3007 170.951 19.5616 171.325 17.9856C168.879 19.2569 168.941 23.1203 169.611 26.202C168.903 25.679 167.626 23.1083 167.674 21.8637C165.73 24.8368 165.883 27.3306 168.134 29.345C169.554 29.7007 171.047 29.673 172.452 29.2649H172.456Z" fill="#2194FF"/>
<defs>
<filter id="filter0_d_6_228" x="0" y="47" width="149" height="37" filterUnits="userSpaceOnUse" color-interpolation-filters="sRGB">
<feFlood flood-opacity="0" result="BackgroundImageFix"/>
<feColorMatrix in="SourceAlpha" type="matrix" values="0 0 0 0 0 0 0 0 0 0 0 0 0 0 0 0 0 0 127 0" result="hardAlpha"/>
<feOffset dy="4"/>
<feGaussianBlur stdDeviation="2"/>
<feComposite in2="hardAlpha" operator="out"/>
<feColorMatrix type="matrix" values="0 0 0 0 0 0 0 0 0 0 0 0 0 0 0 0 0 0 0.25 0"/>
<feBlend mode="normal" in2="BackgroundImageFix" result="effect1_dropShadow_6_228"/>
<feBlend mode="normal" in="SourceGraphic" in2="effect1_dropShadow_6_228" result="shape"/>
</filter>
<filter id="filter1_d_6_228" x="190" y="47" width="87" height="37" filterUnits="userSpaceOnUse" color-interpolation-filters="sRGB">
<feFlood flood-opacity="0" result="BackgroundImageFix"/>
<feColorMatrix in="SourceAlpha" type="matrix" values="0 0 0 0 0 0 0 0 0 0 0 0 0 0 0 0 0 0 127 0" result="hardAlpha"/>
<feOffset dy="4"/>
<feGaussianBlur stdDeviation="2"/>
<feComposite in2="hardAlpha" operator="out"/>
<feColorMatrix type="matrix" values="0 0 0 0 0 0 0 0 0 0 0 0 0 0 0 0 0 0 0.25 0"/>
<feBlend mode="normal" in2="BackgroundImageFix" result="effect1_dropShadow_6_228"/>
<feBlend mode="normal" in="SourceGraphic" in2="effect1_dropShadow_6_228" result="shape"/>
</filter>
<filter id="filter2_d_6_228" x="1" y="84" width="200" height="22" filterUnits="userSpaceOnUse" color-interpolation-filters="sRGB">
<feFlood flood-opacity="0" result="BackgroundImageFix"/>
<feColorMatrix in="SourceAlpha" type="matrix" values="0 0 0 0 0 0 0 0 0 0 0 0 0 0 0 0 0 0 127 0" result="hardAlpha"/>
<feOffset dy="4"/>
<feGaussianBlur stdDeviation="2"/>
<feComposite in2="hardAlpha" operator="out"/>
<feColorMatrix type="matrix" values="0 0 0 0 0 0 0 0 0 0 0 0 0 0 0 0 0 0 0.25 0"/>
<feBlend mode="normal" in2="BackgroundImageFix" result="effect1_dropShadow_6_228"/>
<feBlend mode="normal" in="SourceGraphic" in2="effect1_dropShadow_6_228" result="shape"/>
</filter>
</defs>
</svg>
