<svg width="44" height="44" fill="none" xmlns="http://www.w3.org/2000/svg"><path fill-rule="evenodd" clip-rule="evenodd" d="M29.044 27.676a.828.828 0 001.175 0 .828.828 0 000-1.18.825.825 0 00-.585-.241.827.827 0 00-.59.242.847.847 0 00-.246.59c0 .233.097.44.247.589zm-15.263 0a.826.826 0 001.175 0 .831.831 0 00.246-.59.847.847 0 00-.246-.59.827.827 0 00-.59-.241.825.825 0 00-.585.242.828.828 0 000 1.179zM37.026 6.974C33.172 3.12 27.856.73 22 .73S10.83 3.12 6.974 6.974C3.12 10.828.73 16.144.73 22s2.39 11.172 6.244 15.026C10.828 40.88 16.144 43.27 22 43.27c5.857 0 11.172-2.39 15.026-6.244C40.88 33.172 43.27 27.856 43.27 22s-2.39-11.172-6.244-15.026zm-1.17 28.882c-3.551 3.55-8.453 5.75-13.856 5.75-5.403 0-10.305-2.2-13.856-5.75-3.55-3.551-5.75-8.453-5.75-13.856 0-5.403 2.2-10.305 5.75-13.856 3.551-3.55 8.453-5.75 13.856-5.75 5.403 0 10.305 2.2 13.856 5.75 3.55 3.551 5.75 8.453 5.75 13.856 0 5.403-2.2 10.305-5.75 13.856zm-2.477-25.234A16.05 16.05 0 0022 5.905c-4.44 0-8.461 1.804-11.374 4.717A16.05 16.05 0 007.308 28.56a16.034 16.034 0 003.96 5.43.833.833 0 001.114-1.24 14.43 14.43 0 01-3.265-4.273 14.502 14.502 0 01-1.487-5.175l-.044-.48H9.28c.233 0 .44-.092.594-.237a.84.84 0 00-.005-1.175.835.835 0 00-.59-.242H7.587l.044-.48c.132-1.478.492-2.89 1.034-4.206.563-1.35 1.324-2.6 2.252-3.713l.309-.37 1.192 1.197a.834.834 0 001.18-1.18L12.4 11.224l.37-.308a14.523 14.523 0 013.714-2.252A14.28 14.28 0 0120.69 7.63l.48-.044V9.28c0 .228.092.44.241.59a.835.835 0 001.422-.59V7.586l.48.044a14.28 14.28 0 014.206 1.034c1.35.563 2.6 1.324 3.713 2.252l.37.308-1.197 1.193a.834.834 0 001.18 1.18l1.192-1.198.308.37a14.523 14.523 0 012.252 3.713 14.417 14.417 0 011.035 4.207l.043.48H34.72a.835.835 0 00-.59.241.835.835 0 00.59 1.422h1.694l-.044.48a14.488 14.488 0 01-1.482 5.165 14.576 14.576 0 01-3.27 4.272.804.804 0 00-.272.572.836.836 0 00.206.603.833.833 0 001.18.066 16.034 16.034 0 003.96-5.43 16.065 16.065 0 00-3.313-17.939zm-12.21 3.744v4.347l-.295.106a3.388 3.388 0 00-1.633 1.236A3.353 3.353 0 0018.625 22a3.37 3.37 0 003.376 3.375A3.37 3.37 0 0025.375 22c0-.726-.229-1.4-.616-1.945a3.388 3.388 0 00-1.633-1.236l-.294-.106v-4.347a.825.825 0 00-.242-.585.82.82 0 00-.59-.247.82.82 0 00-.59.247.825.825 0 00-.241.585zm2.041 8.844c-.312.308-.74.502-1.21.502s-.898-.194-1.21-.502a1.721 1.721 0 01-.502-1.21c0-.47.194-.898.502-1.21.313-.308.74-.502 1.21-.502s.898.194 1.21.502c.308.312.502.74.502 1.21s-.194.898-.502 1.21zm3.877 5.588H16.913a.831.831 0 00-.59.246.831.831 0 00-.246.59v5.086a.836.836 0 00.836.832h10.172a.837.837 0 00.837-.832v-5.086a.831.831 0 00-.247-.59.831.831 0 00-.59-.246zm-1.272 5.09h-8.07v-3.422h8.51v3.423h-.44z" fill="#0883D1"/></svg>