<svg width="145" height="145" fill="none" xmlns="http://www.w3.org/2000/svg"><path d="M120.248 16.244l-7.352-8.949-7.352 8.95-7.352-8.95-7.352 8.95-7.352-8.95-7.352 8.95-7.352-8.95-7.352 8.95-7.352-8.95-7.352 8.95-7.351-8.95-7.352 8.95-7.692-9.358h-.76l.125 131.452 89.583.136c18.896 0 15.112-39.433 15.112-39.433l.023-92.166h-.431l-7.737 9.368z" fill="#fff"/><path d="M74.313 44.44a9.062 9.062 0 100-18.125 9.062 9.062 0 000 18.125z" fill="#94D1E0"/><path d="M36.715 83.715h35.298m-35.299-29.77h43.591-43.59zm63.472 0h13.243-13.243zm0 14.885h13.243-13.243zm-32.988 0h11.974-11.974zm-30.483 0h19.96-19.96zm56.312 42.118h20.402-20.402zm7.159-27.233h13.243-13.243zM37.168 98.6h.453" stroke="#82AEC0" stroke-width="4" stroke-miterlimit="10" stroke-linecap="round"/><path d="M46.128 98.6h61.251" stroke="#82AEC0" stroke-width="4" stroke-miterlimit="10" stroke-linecap="round" stroke-dasharray="0.75 7.51"/><path d="M111.639 98.6h.453" stroke="#82AEC0" stroke-width="4" stroke-miterlimit="10" stroke-linecap="round"/><path d="M130.409 3.444h-.283c-.09 0-1.688.034-4.191 2.719l-5.676 6.91-7.363-8.95-7.352 8.95-7.363-8.95-7.352 8.95-7.363-8.95-7.352 8.95-7.352-8.95-7.352 8.95-7.352-8.95-7.352 8.95-7.352-8.95-7.352 8.938-3.829-4.916c-3.897-4.679-6.332-4.237-6.434-4.225l-.227.045.113 116.77-6.105 6.65-6.525-7.828s-3.943 5.698 1.144 13.401c4.067 6.174 17.049 5.54 22.35 5.54l76.997.068c13.084-.08 16.653-2.844 19.19-14.568 1.745-8.077 1.733-19.983 1.733-24.47V3.445zm-50.33 116.124l-7.171 7.828-7.17-7.828-7.172 7.828-7.17-7.828-7.171 7.828-7.17-7.828-7.171 7.828-4.18-4.565-.102-111.208 6.411 7.793 7.352-8.949 7.352 8.95 7.352-8.95 7.352 8.95 7.352-8.95 7.352 8.95 7.352-8.95 7.363 8.95 7.352-8.95 7.364 8.95 7.351-8.95 7.364 8.95 6.083-7.41-.023 86.956v1.019c.012 4.735.057 15.837-1.642 23.155-1.745 7.578-4.498 10.637-10.139 11.294-1.677.192-10.478.408-18.635-14.84-.136-.261-.35-.204-.396-.193-.012 0-.023.012-.034.012a58.29 58.29 0 01-.125-.544l-8.1 8.519-7.181-7.817z" fill="#6FBFF0"/></svg>