<svg width="44" height="44" fill="none" xmlns="http://www.w3.org/2000/svg"><path fill-rule="evenodd" clip-rule="evenodd" d="M21.5 7.581c-5.953 0-10.156 4.72-10.156 10.53 0 2.644.987 4.427 2.226 6.127.27.37.543.727.824 1.093l.15.193c.328.43.667.874.984 1.332.631.914 1.224 1.941 1.555 3.156.08.325.044.672-.105.967a1.202 1.202 0 01-.688.611 1.075 1.075 0 01-.88-.092 1.265 1.265 0 01-.57-.743c-.217-.791-.621-1.531-1.178-2.335a31.13 31.13 0 00-.909-1.229l-.144-.189c-.28-.365-.578-.75-.867-1.148C10.36 23.958 9 21.61 9 18.11 9 10.788 14.336 5 21.5 5S34 10.786 34 18.112c0 3.497-1.36 5.846-2.742 7.744-.29.396-.586.781-.867 1.148l-.144.187a29.85 29.85 0 00-.91 1.23c-.556.803-.96 1.544-1.176 2.334-.09.328-.294.604-.568.766a1.076 1.076 0 01-.892.1 1.204 1.204 0 01-.695-.626 1.409 1.409 0 01-.09-.983c.332-1.215.925-2.242 1.557-3.156.316-.458.655-.902.985-1.332l.148-.193c.281-.366.555-.723.824-1.091 1.239-1.704 2.226-3.485 2.226-6.128 0-5.81-4.203-10.53-10.156-10.53zM17.594 40.71c0-.342.123-.67.343-.912a1.12 1.12 0 01.829-.378h5.468c.311 0 .61.136.829.378.22.242.343.57.343.912 0 .343-.123.67-.343.913a1.12 1.12 0 01-.829.378h-5.468a1.12 1.12 0 01-.829-.378 1.36 1.36 0 01-.343-.913zm-1.172-6.453c-.31 0-.609.136-.829.378a1.36 1.36 0 00-.343.913c0 .342.123.67.343.912.22.242.518.378.829.378h10.156c.31 0 .609-.136.829-.378.22-.242.343-.57.343-.913 0-.342-.123-.67-.343-.912a1.12 1.12 0 00-.829-.378H16.422z" fill="#0883D1"/><path d="M13.6 3.8l-1.8-2.4m17.6 2.4l1.8-2.4M6.658 10.447l-2.21-1.105m31.894 1.105l2.21-1.105M6.217 20.177l-3.04.608m33.608-.608l3.04.608" stroke="#0883D1" stroke-width="2" stroke-linecap="round"/></svg>