<svg width="44" height="31" fill="none" xmlns="http://www.w3.org/2000/svg"><path d="M.099 1.114A1.375 1.375 0 011.886.349l4.832 1.933c.984.394 2.08.394 3.064 0l2.788-1.116a6.875 6.875 0 015.107 0l2.791 1.116c.983.394 2.08.394 3.064 0l2.788-1.116a6.875 6.875 0 015.107 0l2.791 1.116c.983.394 2.08.394 3.064 0L42.114.35a1.375 1.375 0 111.023 2.552l-4.835 1.933a6.875 6.875 0 01-5.107 0l-2.788-1.116a4.125 4.125 0 00-3.064 0l-2.791 1.116a6.875 6.875 0 01-5.107 0l-2.788-1.116a4.125 4.125 0 00-3.064 0l-2.791 1.116a6.875 6.875 0 01-5.107 0L.863 2.901A1.375 1.375 0 01.1 1.114zm0 8.25a1.375 1.375 0 011.787-.765l4.832 1.933c.984.393 2.08.393 3.064 0l2.788-1.116a6.875 6.875 0 015.107 0l2.791 1.116c.983.393 2.08.393 3.064 0l2.788-1.116a6.875 6.875 0 015.107 0l2.791 1.116c.983.393 2.08.393 3.064 0L42.114 8.6a1.375 1.375 0 111.023 2.552l-4.835 1.933a6.876 6.876 0 01-5.107 0l-2.788-1.116a4.125 4.125 0 00-3.064 0l-2.791 1.116a6.876 6.876 0 01-5.107 0l-2.788-1.116a4.125 4.125 0 00-3.064 0l-2.791 1.116a6.876 6.876 0 01-5.107 0L.863 11.151A1.375 1.375 0 01.1 9.364zm0 8.25a1.375 1.375 0 011.787-.765l4.832 1.933c.984.393 2.08.393 3.064 0l2.788-1.116a6.875 6.875 0 015.107 0l2.791 1.116c.983.393 2.08.393 3.064 0l2.788-1.116a6.875 6.875 0 015.107 0l2.791 1.116c.983.393 2.08.393 3.064 0l4.832-1.933a1.375 1.375 0 111.023 2.552l-4.835 1.933a6.876 6.876 0 01-5.107 0l-2.788-1.116a4.125 4.125 0 00-3.064 0l-2.791 1.116a6.876 6.876 0 01-5.107 0l-2.788-1.116a4.125 4.125 0 00-3.064 0l-2.791 1.116a6.876 6.876 0 01-5.107 0L.863 19.401A1.375 1.375 0 01.1 17.613zm0 8.25a1.375 1.375 0 011.787-.765l4.832 1.933c.984.393 2.08.393 3.064 0l2.788-1.116a6.875 6.875 0 015.107 0l2.791 1.116c.983.393 2.08.393 3.064 0l2.788-1.116a6.875 6.875 0 015.107 0l2.791 1.116c.983.393 2.08.393 3.064 0l4.832-1.933a1.375 1.375 0 111.023 2.552l-4.835 1.933a6.876 6.876 0 01-5.107 0l-2.788-1.116a4.125 4.125 0 00-3.064 0l-2.791 1.116a6.876 6.876 0 01-5.107 0l-2.788-1.116a4.125 4.125 0 00-3.064 0l-2.791 1.116a6.876 6.876 0 01-5.107 0L.863 27.651A1.375 1.375 0 01.1 25.863z" fill="#0883D1"/></svg>