<svg width="138" height="74" fill="none" xmlns="http://www.w3.org/2000/svg"><path fill-rule="evenodd" clip-rule="evenodd" d="M7.473-8.624c8.946-4.774 18.004-9.128 31.29-9.31 6.468-.084 15.442 1.19 24.878 5.138 5.712 2.408 10.864 6.342 16.338 8.96C86.25-.826 92.733.742 97.269.84c14.98.308 18.214-3.906 29.162-8.19 3.668-1.428 7.798-2.394 10.164 1.834 2.352 4.228-.532 8.358-3.948 9.744-7 2.814-20.622 10.15-35.784 10.43-5.166.098-11.55-1.358-18.088-4.242-7.126-3.15-14.42-7.672-21.924-10.78-5.852-2.422-12.53-4.158-18.074-4.158-10.85 0-16.422 3.374-25.942 8.61-3.598 1.974-7.98 3.094-11.004-.994-3.038-4.088.378-8.904 5.642-11.718zM7.33 21.294c8.96-4.774 18.018-9.128 31.304-9.31 6.454-.098 15.428 1.19 24.864 5.138 5.726 2.394 10.864 6.328 16.352 8.96 6.258 3.01 12.754 4.578 17.29 4.676 14.98.308 18.214-3.906 29.162-8.19 3.654-1.428 7.798-2.394 10.15 1.834 2.366 4.228-.518 8.358-3.948 9.73-7 2.828-20.608 10.164-35.784 10.444-5.166.098-11.536-1.358-18.088-4.242-7.112-3.15-14.406-7.672-21.91-10.78-5.866-2.422-12.53-4.158-18.074-4.158-10.864 0-16.436 3.374-25.956 8.596-3.598 1.974-7.966 3.108-11.004-.98-3.024-4.088.392-8.904 5.642-11.718zm0 29.358c8.96-4.788 18.018-9.128 31.304-9.31 6.454-.098 15.428 1.19 24.864 5.138 5.726 2.394 10.864 6.328 16.352 8.96 6.258 3.01 12.754 4.578 17.29 4.662 14.98.308 18.214-3.906 29.162-8.19 3.654-1.428 7.798-2.394 10.15 1.848 2.366 4.228-.518 8.344-3.948 9.73-7 2.828-20.608 10.164-35.784 10.444-5.166.098-11.536-1.358-18.088-4.256-7.112-3.15-14.406-7.658-21.91-10.766-5.866-2.436-12.53-4.172-18.074-4.172-10.864 0-16.436 3.388-25.956 8.61-3.598 1.974-7.966 3.094-11.004-.994-3.024-4.074.392-8.904 5.642-11.704z" fill="#fff" fill-opacity=".33"/></svg>