<svg width="16" height="16" fill="none" xmlns="http://www.w3.org/2000/svg"><path d="M12 6.5h-1A1.502 1.502 0 009.5 5V4A2.503 2.503 0 0112 6.5z" fill="#fff"/><path d="M14 6.5h-1A3.504 3.504 0 009.5 3V2A4.505 4.505 0 0114 6.5zm-3.834 4.241l1.12-1.12a1.084 1.084 0 011.169-.24l1.364.546a1.083 1.083 0 01.681 1.006v2.48a1.083 1.083 0 01-1.142 1.085C3.797 13.903 1.866 5.805 1.508 2.704A1.081 1.081 0 012.585 1.5H5.02a1.084 1.084 0 011.006.681l.546 1.364a1.084 1.084 0 01-.24 1.168l-1.12 1.12s.62 4.367 4.953 4.908z" fill="#fff"/></svg>