<svg width="61" height="12" fill="none" xmlns="http://www.w3.org/2000/svg"><g clip-path="url(#clip0_282_96)" fill="#fff"><mask id="a"><path d="M3.113.89h1.035c1.893 0 2.815.855 2.815 2.679 0 1.81-.97 2.998-3.113 2.998v.301c.068.014.215.028.43.028 2.405 0 4.376-1.264 4.376-3.487 0-1.964-1.395-3.026-4.21-3.026H0v.413C1.415.97 1.464.904 1.464 2.08v8.023c0 1.17-.049 1.109-1.464 1.283v.413h4.577v-.413c-1.415-.174-1.464-.113-1.464-1.283V.89zM49.992.383v.413c.736 0 1.083.38 1.576 1.11l2.6 3.881-3.176 4.348c-.59.822-1.02 1.25-1.84 1.25v.413h3.338v-.413c-.425 0-.771-.207-.771-.616 0-.24.112-.526.376-.888l2.523-3.473 2.65 3.614c.243.348.346.62.346.808 0 .442-.479.555-.923.555v.413H61v-.413c-.937 0-1.152-.268-2.005-1.457l-3.343-4.615 2.8-3.694c.362-.475 1.001-.823 1.562-.823V.382h-3.21v.414c.395 0 .79.155.79.522 0 .16-.063.348-.244.587l-2.19 2.853-1.777-2.698c-.2-.282-.283-.535-.283-.71 0-.413.415-.554.859-.554V.382h-3.967zM38.695 7.39l2.025-5.31h.03l1.795 5.31h-3.85zM40.77.176c-1.415 3.614-3.391 8.943-4.133 10.368-.263.54-.756.827-1.22.827v.427h3.094v-.427c-.605 0-.917-.348-.917-.809 0-.066.014-.225.063-.366l.79-2.186h4.314l.722 2.106c.083.24.132.413.132.587 0 .395-.278.668-1.02.668v.427h3.953v-.427c-.727 0-1.006-.527-1.386-1.443-.576-1.443-2.303-6.472-3.455-9.752h-.937zM24.203.383v.413c1.415.174 1.464.108 1.464 1.283v8.023c0 1.17-.05 1.109-1.464 1.283v.413h8.33l.512-2.932h-.43c-.77 1.743-.673 2.425-3.128 2.425-1.512 0-2.17-.127-2.17-1.27V2.08c0-1.175.048-1.109 1.463-1.283V.382h-4.577zM13.614 7.39l2.025-5.31h.034l1.796 5.31h-3.855zM15.688.176c-1.415 3.614-3.386 8.943-4.128 10.368-.264.54-.757.827-1.22.827v.427h3.094v-.427c-.61 0-.923-.348-.923-.809 0-.066.02-.225.069-.366l.79-2.186h4.314l.722 2.106c.083.24.132.413.132.587 0 .395-.279.668-1.02.668v.427h3.952v-.427c-.727 0-1.005-.527-1.386-1.443-.575-1.443-2.303-6.472-3.454-9.752h-.942z"/></mask><path d="M3.113.89h1.035c1.893 0 2.815.855 2.815 2.679 0 1.81-.97 2.998-3.113 2.998v.301c.068.014.215.028.43.028 2.405 0 4.376-1.264 4.376-3.487 0-1.964-1.395-3.026-4.21-3.026H0v.413C1.415.97 1.464.904 1.464 2.08v8.023c0 1.17-.049 1.109-1.464 1.283v.413h4.577v-.413c-1.415-.174-1.464-.113-1.464-1.283V.89zM49.992.383v.413c.736 0 1.083.38 1.576 1.11l2.6 3.881-3.176 4.348c-.59.822-1.02 1.25-1.84 1.25v.413h3.338v-.413c-.425 0-.771-.207-.771-.616 0-.24.112-.526.376-.888l2.523-3.473 2.65 3.614c.243.348.346.62.346.808 0 .442-.479.555-.923.555v.413H61v-.413c-.937 0-1.152-.268-2.005-1.457l-3.343-4.615 2.8-3.694c.362-.475 1.001-.823 1.562-.823V.382h-3.21v.414c.395 0 .79.155.79.522 0 .16-.063.348-.244.587l-2.19 2.853-1.777-2.698c-.2-.282-.283-.535-.283-.71 0-.413.415-.554.859-.554V.382h-3.967zM38.695 7.39l2.025-5.31h.03l1.795 5.31h-3.85zM40.77.176c-1.415 3.614-3.391 8.943-4.133 10.368-.263.54-.756.827-1.22.827v.427h3.094v-.427c-.605 0-.917-.348-.917-.809 0-.066.014-.225.063-.366l.79-2.186h4.314l.722 2.106c.083.24.132.413.132.587 0 .395-.278.668-1.02.668v.427h3.953v-.427c-.727 0-1.006-.527-1.386-1.443-.576-1.443-2.303-6.472-3.455-9.752h-.937zM24.203.383v.413c1.415.174 1.464.108 1.464 1.283v8.023c0 1.17-.05 1.109-1.464 1.283v.413h8.33l.512-2.932h-.43c-.77 1.743-.673 2.425-3.128 2.425-1.512 0-2.17-.127-2.17-1.27V2.08c0-1.175.048-1.109 1.463-1.283V.382h-4.577zM13.614 7.39l2.025-5.31h.034l1.796 5.31h-3.855zM15.688.176c-1.415 3.614-3.386 8.943-4.128 10.368-.264.54-.757.827-1.22.827v.427h3.094v-.427c-.61 0-.923-.348-.923-.809 0-.066.02-.225.069-.366l.79-2.186h4.314l.722 2.106c.083.24.132.413.132.587 0 .395-.279.668-1.02.668v.427h3.952v-.427c-.727 0-1.005-.527-1.386-1.443-.575-1.443-2.303-6.472-3.454-9.752h-.942z"/><path d="M3.113.89v-1h-1v1h1zm.737 5.677v-1h-1v1h1zm0 .301h-1v.815l.798.165.202-.98zM0 .382v-1h-1v1h1zm0 .414h-1v.885l.878.108L0 .796zm0 10.589l-.122-.993L-1 10.5v.885h1zm0 .413h-1v1h1v-1zm4.577 0v1h1v-1h-1zm0-.413h1V10.5l-.878-.108-.122.993zM49.992.383v-1h-1v1h1zm0 .413h-1v1h1v-1zm1.576 1.11l.83-.557-.002-.004-.828.56zm2.6 3.881l.808.59.413-.565-.39-.581-.83.556zm-3.176 4.348l-.807-.59-.005.006.812.584zm-1.84 1.25v-1h-1v1h1zm0 .413h-1v1h1v-1zm3.338 0v1h1v-1h-1zm0-.413h1v-1h-1v1zm-.395-1.504l.808.588-.808-.588zm2.523-3.473l.806-.592-.81-1.105-.806 1.109.81.588zm2.65 3.614l.818-.575-.006-.008-.006-.008-.807.59zm-.577 1.363v-1h-1v1h1zm0 .413h-1v1h1v-1zm4.309 0v1h1v-1h-1zm0-.413h1v-1h-1v1zm-2.005-1.457l.812-.584-.003-.003-.81.587zm-3.343-4.615l-.797-.605-.448.59.435.601.81-.586zm2.8-3.694l-.795-.606-.001.001.797.605zm1.562-.823v1h1v-1h-1zm0-.414h1v-1h-1v1zm-3.21 0v-1h-1v1h1zm0 .414h-1v1h1v-1zm.546 1.11l.793.608.006-.007-.799-.602zm-2.19 2.852l-.836.55.773 1.173.855-1.114-.793-.609zM53.382 2.06l.835-.55-.01-.014-.01-.014-.815.578zm.576-1.264v1h1v-1h-1zm0-.414h1v-1h-1v1zM38.695 7.39l-.934-.356-.517 1.356h1.451v-1zm2.025-5.31v-1h-.689l-.245.643.934.356zm.03 0l.947-.321-.23-.68h-.717v1zm1.795 5.31v1h1.394l-.446-1.32-.948.32zM40.77.176v-1h-.682l-.249.635.931.365zm-4.133 10.368l-.887-.462-.006.011-.006.012.9.438zm-1.22.827v-1h-1v1h1zm0 .427h-1v1h1v-1zm3.094 0v1h1v-1h-1zm0-.427h1v-1h-1v1zm-.854-1.175l-.94-.34-.005.013.945.327zm.79-2.186v-1h-.701l-.239.66.94.34zm4.314 0l.946-.324-.232-.676h-.714v1zm.722 2.106l-.946.324.001.003.945-.327zm-.888 1.255v-1h-1v1h1zm0 .427h-1v1h1v-1zm3.953 0v1h1v-1h-1zm0-.427h1v-1h-1v1zM45.16 9.928l-.93.37.006.013.924-.383zM41.706.176l.944-.331-.235-.67h-.709v1zM24.203.383v-1h-1v1h1zm0 .413h-1v.885l.878.108.122-.993zm0 10.589l-.122-.993-.878.108v.885h1zm0 .413h-1v1h1v-1zm8.33 0v1h.84l.144-.828-.985-.172zm.512-2.932l.985.172.205-1.172h-1.19v1zm-.43 0v-1h-.65l-.264.595.914.405zM28.78.796l.122.993.878-.108V.796h-1zm0-.414h1v-1h-1v1zM13.614 7.39l-.934-.356-.517 1.356h1.451v-1zm2.025-5.31v-1h-.689l-.245.643.934.356zm.034 0l.948-.321-.23-.68h-.718v1zm1.796 5.31v1h1.394l-.447-1.32-.947.32zM15.688.176v-1h-.682l-.25.635.932.365zM11.56 10.544l-.887-.462-.006.011-.006.012.899.438zm-1.22.827v-1h-1v1h1zm0 .427h-1v1h1v-1zm3.094 0v1h1v-1h-1zm0-.427h1v-1h-1v1zm-.854-1.175l-.94-.34-.005.013.945.327zm.79-2.186v-1h-.702l-.238.66.94.34zm4.314 0l.946-.324-.232-.676h-.714v1zm.722 2.106l-.946.324v.003l.946-.327zm-.888 1.255v-1h-1v1h1zm0 .427h-1v1h1v-1zm3.952 0v1h1v-1h-1zm0-.427h1v-1h-1v1zm-1.386-1.443l-.928.37.005.013.923-.383zM16.63.176l.943-.331-.235-.67h-.708v1zM3.113 1.89h1.035v-2H3.113v2zm1.035 0c.817 0 1.224.187 1.43.382.196.185.385.542.385 1.297h2c0-1.069-.272-2.051-1.01-2.75C6.224.131 5.223-.11 4.147-.11v2zm1.815 1.68c0 .734-.195 1.199-.469 1.48-.269.275-.755.518-1.644.518v2c1.253 0 2.324-.35 3.076-1.122.747-.766 1.037-1.8 1.037-2.876h-2zM2.85 6.567v.301h2v-.3h-2zm.798 1.28c.167.035.392.05.631.05v-2a2.746 2.746 0 01-.24-.01c-.01-.002-.004-.002.013.002l-.404 1.959zm.631.05c1.366 0 2.685-.358 3.69-1.11C9 6.015 9.656 4.854 9.656 3.409h-2c0 .779-.33 1.36-.885 1.777-.582.435-1.451.71-2.492.71v2zm5.377-4.488c0-1.248-.46-2.329-1.46-3.058-.945-.689-2.244-.969-3.75-.969v2c1.308 0 2.115.252 2.571.585.402.293.64.725.64 1.442h2zM4.446-.617H0v2h4.445v-2zM-1 .383v.413h2V.382h-2zm.878 1.406c.385.047.603.07.77.1.037.006.063.012.081.016l.024.007a.435.435 0 01-.117-.07.597.597 0 01-.16-.2C.447 1.585.444 1.55.447 1.57c.004.021.01.069.013.16.003.091.004.203.004.35h2c0-.273 0-.577-.043-.835C2.373.952 2.249.572 1.89.283c-.305-.245-.662-.322-.887-.362C.763-.123.445-.157.122-.196l-.244 1.985zm.586.29v8.023h2V2.079h-2zm0 8.023c0 .146 0 .256-.004.347a1.396 1.396 0 01-.012.16c-.004.02 0-.014.028-.073a.595.595 0 01.158-.197.424.424 0 01.117-.07l-.024.006a1.43 1.43 0 01-.08.017c-.166.03-.385.053-.769.1l.244 1.985c.324-.04.641-.074.883-.118.226-.04.582-.12.886-.364.358-.29.481-.668.53-.96a5.47 5.47 0 00.043-.833h-2zM-1 11.385v.413h2v-.413h-2zm1 1.413h4.577v-2H0v2zm5.577-1v-.413h-2v.413h2zM4.7 10.392c-.383-.047-.603-.07-.769-.1a1.43 1.43 0 01-.08-.017l-.024-.007c.001 0 .052.019.117.07a.61.61 0 01.158.198c.029.059.032.093.029.072a1.394 1.394 0 01-.013-.16 9.837 9.837 0 01-.004-.346h-2c0 .27 0 .574.043.832.049.293.172.672.53.96.304.246.66.324.886.365.242.044.56.078.883.118l.244-1.985zm-.586-.29V.89h-2v9.212h2zM48.992.382v.414h2V.382h-2zm1 1.414c.165 0 .216.033.267.072.1.078.233.232.48.598l1.657-1.121c-.245-.363-.532-.764-.912-1.058-.43-.333-.921-.49-1.492-.49v2zm.745.666l2.6 3.882L55 5.23l-2.6-3.882-1.662 1.113zm2.624 2.735l-3.176 4.348 1.614 1.18 3.177-4.348-1.615-1.18zM50.18 9.551c-.291.406-.47.604-.616.713-.104.076-.205.12-.412.12v2c.614 0 1.137-.169 1.6-.512.42-.31.753-.737 1.052-1.154L50.18 9.55zm-2.028 1.834v.413h2v-.413h-2zm1 1.413h3.338v-2h-3.338v2zm4.338-1v-.413h-2v.413h2zm-1-1.413c-.066 0-.031-.018.048.04a.455.455 0 01.181.344h-2c0 .526.24.977.633 1.267.359.263.78.349 1.138.349v-2zm.229.384c0 .038-.01.038.013-.015.022-.055.071-.148.171-.285l-1.617-1.177c-.315.433-.567.929-.567 1.477h2zm.185-.3l2.523-3.474-1.619-1.175-2.522 3.473 1.618 1.176zm.907-3.47l2.65 3.614 1.613-1.182-2.65-3.615L53.811 7zm2.638 3.597c.09.13.138.221.16.273.023.058.005.04.005-.039h2c0-.499-.246-.98-.528-1.383l-1.637 1.15zm.165.234a.545.545 0 01.275-.46c.022-.01.018-.004-.027.003-.042.007-.1.012-.17.012v2c.276 0 .683-.03 1.057-.21a1.457 1.457 0 00.864-1.346h-2zm-.923.555v.413h2v-.413h-2zm1 1.413H61v-2h-4.309v2zm5.309-1v-.413h-2v.413h2zm-1-1.413c-.358 0-.39-.049-.42-.073a1.772 1.772 0 01-.265-.282 16.71 16.71 0 01-.508-.686l-1.625 1.167c.392.546.752 1.056 1.17 1.38.525.408 1.069.494 1.648.494v-2zM59.804 9.34l-3.342-4.615-1.62 1.173 3.343 4.615 1.62-1.173zM56.45 5.917l2.8-3.694-1.593-1.209-2.8 3.694 1.593 1.209zm2.8-3.693c.198-.26.558-.428.765-.428v-2c-.914 0-1.833.529-2.357 1.217l1.592 1.211zM61.014.796V.382h-2v.414h2zm-1-1.414h-3.21v2h3.21v-2zm-4.21 1v.414h2V.382h-2zm1 1.414c.035 0 .061.004.076.007.016.004.003.003-.029-.015a.492.492 0 01-.162-.159.579.579 0 01-.095-.311h2c0-.62-.366-1.047-.751-1.267a2.116 2.116 0 00-1.04-.255v2zm-.21-.478a.365.365 0 01.016-.105c.001-.003 0 .003-.01.019a.725.725 0 01-.049.072l1.598 1.203c.261-.347.445-.742.445-1.19h-2zm-.037-.022L54.366 4.15l1.586 1.218 2.191-2.853-1.586-1.218zm-.563 2.912L54.218 1.51l-1.67 1.1 1.776 2.698 1.67-1.1zM54.2 1.482a.81.81 0 01-.098-.172l-.006-.018a.275.275 0 01.005.059h-2c0 .45.195.904.467 1.288L54.2 1.482zm-.1-.131a.53.53 0 01-.257.445c-.033.018-.043.016-.014.01a.713.713 0 01.13-.01v-2c-.3 0-.706.043-1.075.245-.43.235-.783.684-.783 1.31h2zm.86-.555V.382h-2v.414h2zm-1-1.414h-3.967v2h3.967v-2zM39.63 7.746l2.026-5.31-1.869-.713-2.025 5.31 1.869.713zm1.09-4.666h.03v-2h-.03v2zm-.918-.68l1.796 5.311 1.895-.64-1.796-5.311-1.895.64zm2.743 3.99h-3.85v2h3.85v-2zM39.838-.188c-.704 1.797-1.565 4.068-2.32 6.007-.773 1.986-1.43 3.612-1.769 4.264l1.774.923c.402-.772 1.104-2.522 1.859-4.461.773-1.986 1.607-4.187 2.318-6.004l-1.862-.729zm-4.1 10.294c-.11.223-.269.266-.322.266v2c.874 0 1.7-.53 2.119-1.39l-1.798-.876zm-1.322 1.266v.427h2v-.427h-2zm1 1.427h3.094v-2h-3.094v2zm4.094-1v-.427h-2v.427h2zm-1-1.427c-.112 0-.074-.03 0 .04a.292.292 0 01.07.102c.013.033.013.052.013.05h-2c0 .461.161.943.546 1.305.381.358.878.503 1.37.503v-2zm.083.191v.016a.402.402 0 01.007-.05l.001-.005-1.89-.654c-.093.27-.118.544-.118.693h2zm.003-.026l.79-2.186-1.88-.68-.79 2.186 1.88.68zm-.15-1.526h4.314v-2h-4.313v2zm3.368-.675l.722 2.105 1.892-.649-.722-2.105-1.892.649zm.723 2.108a2.9 2.9 0 01.07.222c.009.04.007.048.007.038h2c0-.357-.102-.67-.187-.914l-1.89.654zm.077.26a.463.463 0 01.182-.328c.046-.033.068-.033.034-.025a1.05 1.05 0 01-.236.02v2c.465 0 .967-.08 1.375-.375a1.56 1.56 0 00.645-1.292h-2zm-1.02.668v.427h2v-.427h-2zm1 1.427h3.953v-2h-3.953v2zm4.953-1v-.427h-2v.427h2zm-1-1.427c-.057 0-.061-.01-.042 0 .019.008.013.013-.017-.024a1.413 1.413 0 01-.162-.262 7.85 7.85 0 01-.242-.54l-1.847.766c.181.436.399.944.723 1.327.39.462.917.733 1.587.733v-2zm-.457-.814c-.566-1.417-2.28-6.405-3.44-9.712l-1.887.662c1.141 3.253 2.883 8.323 3.469 9.792l1.858-.742zM41.706-.824h-.937v2h.937v-2zM23.203.383v.413h2V.382h-2zm.878 1.406c.384.047.603.07.77.1.037.006.063.012.08.016l.025.007a.424.424 0 01-.117-.07.597.597 0 01-.16-.2c-.03-.058-.032-.093-.029-.072.004.021.01.069.013.16.003.091.004.203.004.35h2c0-.273 0-.577-.043-.835-.049-.293-.172-.673-.532-.962-.304-.245-.66-.322-.886-.362-.24-.044-.558-.078-.881-.117l-.244 1.985zm.586.29v8.023h2V2.079h-2zm0 8.023c0 .146-.001.256-.004.347a1.393 1.393 0 01-.013.16c-.003.02 0-.014.029-.073a.595.595 0 01.158-.197.424.424 0 01.117-.07l-.024.006-.08.017c-.166.03-.386.053-.77.1l.245 1.985c.324-.04.641-.074.883-.118.226-.04.582-.12.886-.364.357-.29.481-.668.53-.96a5.36 5.36 0 00.043-.833h-2zm-1.464 1.283v.413h2v-.413h-2zm1 1.413h8.33v-2h-8.33v2zm9.314-.828l.513-2.932-1.97-.344-.513 2.932 1.97.344zm-.472-4.104h-.43v2h.43v-2zM31.7 8.46c-.103.232-.19.445-.266.63-.078.192-.14.345-.202.482-.125.28-.204.397-.266.46-.071.074-.28.258-1.48.258v2c1.256 0 2.225-.157 2.912-.86.316-.325.51-.706.661-1.044.076-.172.152-.358.226-.538.075-.185.154-.375.244-.579l-1.83-.809zm-2.213 1.83a8.38 8.38 0 01-.87-.032 1.18 1.18 0 01-.341-.071c-.007-.004.005.001.023.02a.18.18 0 01.039.05c.008.017-.023-.035-.023-.236h-2c0 .37.052.762.23 1.123.192.388.491.661.846.836.328.162.685.23 1.01.266.331.036.701.044 1.085.044v-2zm-1.172-.27V2.08h-2v7.943h2zm0-7.942c0-.146 0-.258.004-.348.004-.092.009-.14.012-.16.004-.022 0 .013-.028.072a.597.597 0 01-.16.198c-.065.053-.116.07-.117.071l.024-.007c.018-.004.044-.01.08-.016.167-.03.386-.053.77-.1l-.243-1.985c-.323.04-.64.073-.88.117-.226.04-.583.117-.888.362-.359.29-.483.669-.53.962a5.39 5.39 0 00-.044.834h2zM29.78.796V.382h-2v.414h2zm-1-1.414h-4.577v2h4.577v-2zM14.548 7.747l2.025-5.31-1.868-.713-2.025 5.31 1.869.713zM15.64 3.08h.034v-2h-.034v2zm-.913-.68l1.796 5.311 1.894-.64-1.795-5.311-1.895.64zm2.743 3.99h-3.855v2h3.855v-2zM14.757-.188c-.705 1.8-1.563 4.066-2.318 6.008-.771 1.985-1.427 3.611-1.766 4.263l1.774.923c.402-.772 1.103-2.523 1.857-4.462.77-1.982 1.605-4.189 2.315-6.003l-1.862-.729zM10.66 10.105c-.109.223-.268.266-.321.266v2c.874 0 1.7-.53 2.119-1.39l-1.798-.876zm-1.32 1.266v.427h2v-.427h-2zm1 1.427h3.094v-2H10.34v2zm4.094-1v-.427h-2v.427h2zm-1-1.427c-.117 0-.08-.03-.007.038a.295.295 0 01.072.104c.013.032.012.052.012.05h-2c0 .461.162.944.55 1.306.382.358.88.502 1.373.502v-2zm.077.191v.033a.349.349 0 01.01-.056l.002-.012.002-.004-1.89-.654a2.302 2.302 0 00-.124.693h2zm.009-.026l.79-2.186-1.88-.68-.79 2.186 1.88.68zm-.15-1.526h4.314v-2H13.37v2zm3.368-.675l.722 2.105 1.892-.649-.722-2.105-1.892.649zm.723 2.108c.038.111.058.177.069.222.01.04.008.048.008.038h2c0-.357-.103-.67-.187-.914l-1.89.654zm.077.26c0-.018.003-.076.038-.15a.464.464 0 01.143-.178c.046-.033.069-.033.035-.025-.035.009-.109.02-.236.02v2c.465 0 .967-.08 1.374-.375a1.56 1.56 0 00.646-1.292h-2zm-1.02.668v.427h2v-.427h-2zm1 1.427h3.952v-2h-3.952v2zm4.952-1v-.427h-2v.427h2zm-1-1.427c-.057 0-.06-.01-.041 0 .019.008.013.013-.018-.024a1.417 1.417 0 01-.161-.262 7.905 7.905 0 01-.242-.54l-1.847.766c.181.436.398.944.723 1.327.39.462.916.733 1.586.733v-2zm-.457-.814c-.565-1.417-2.279-6.405-3.44-9.712l-1.887.662c1.142 3.253 2.884 8.323 3.47 9.792l1.857-.742zM16.63-.824h-.942v2h.942v-2z" mask="url(#a)"/></g><defs><clipPath id="clip0_282_96"><path fill="#fff" d="M0 0h61v12H0z"/></clipPath></defs></svg>