<svg width="1736" height="44" fill="none" xmlns="http://www.w3.org/2000/svg"><path d="M-202 11.825C-185.286 11.825-175.914 1-159.2 1s26.086 10.825 42.8 10.825S-90.314 1-73.6 1s26.086 10.825 42.8 10.825S-4.714 1 12 1s26.086 10.825 42.8 10.825S80.886 1 97.6 1s26.086 10.825 42.8 10.825S166.486 1 183.2 1s26.086 10.825 42.8 10.825S252.086 1 268.8 1s26.086 10.825 42.8 10.825S337.686 1 354.4 1s26.086 10.825 42.8 10.825S423.286 1 440 1s26.086 10.825 42.8 10.825S508.886 1 525.6 1s26.086 10.825 42.8 10.825S594.486 1 611.2 1s26.086 10.825 42.8 10.825S680.086 1 696.8 1s26.086 10.825 42.8 10.825S765.686 1 782.4 1s26.085 10.825 42.8 10.825C841.914 11.825 851.286 1 868 1s26.086 10.825 42.8 10.825S936.886 1 953.6 1s26.086 10.825 42.8 10.825c16.71 0 26.09-10.825 42.8-10.825 16.71 0 26.09 10.825 42.8 10.825 16.71 0 26.09-10.825 42.8-10.825 16.71 0 26.09 10.825 42.8 10.825 16.71 0 26.09-10.825 42.8-10.825 16.71 0 26.09 10.825 42.8 10.825C1269.91 11.825 1279.29 1 1296 1c16.71 0 26.09 10.825 42.8 10.825 16.71 0 26.09-10.825 42.8-10.825 16.71 0 26.09 10.825 42.8 10.825 16.71 0 26.09-10.825 42.8-10.825 16.71 0 26.09 10.825 42.8 10.825 16.71 0 26.09-10.825 42.8-10.825 16.71 0 26.09 10.825 42.8 10.825 16.71 0 26.09-10.825 42.8-10.825 16.71 0 26.09 10.825 42.8 10.825C1697.91 11.825 1707.29 1 1724 1c16.71 0 26.09 10.825 42.8 10.825 16.71 0 26.09-10.825 42.8-10.825 16.71 0 26.09 10.825 42.8 10.825 16.71 0 26.09-10.825 42.8-10.825 16.71 0 26.09 10.825 42.8 10.825m-2140 8.858c16.714 0 26.086-10.826 42.8-10.826s26.086 10.826 42.8 10.826S-90.314 9.857-73.6 9.857s26.086 10.826 42.8 10.826S-4.714 9.857 12 9.857s26.086 10.826 42.8 10.826S80.886 9.857 97.6 9.857s26.086 10.826 42.8 10.826 26.086-10.826 42.8-10.826 26.086 10.826 42.8 10.826 26.086-10.826 42.8-10.826 26.086 10.826 42.8 10.826 26.086-10.826 42.8-10.826 26.086 10.826 42.8 10.826S423.286 9.857 440 9.857s26.086 10.826 42.8 10.826 26.086-10.826 42.8-10.826 26.086 10.826 42.8 10.826 26.086-10.826 42.8-10.826 26.086 10.826 42.8 10.826 26.086-10.826 42.8-10.826 26.086 10.826 42.8 10.826 26.086-10.826 42.8-10.826 26.085 10.826 42.8 10.826c16.714 0 26.086-10.826 42.8-10.826s26.086 10.826 42.8 10.826 26.086-10.826 42.8-10.826 26.086 10.826 42.8 10.826c16.71 0 26.09-10.826 42.8-10.826 16.71 0 26.09 10.826 42.8 10.826 16.71 0 26.09-10.826 42.8-10.826 16.71 0 26.09 10.826 42.8 10.826 16.71 0 26.09-10.826 42.8-10.826 16.71 0 26.09 10.826 42.8 10.826 16.71 0 26.09-10.826 42.8-10.826 16.71 0 26.09 10.826 42.8 10.826 16.71 0 26.09-10.826 42.8-10.826 16.71 0 26.09 10.826 42.8 10.826 16.71 0 26.09-10.826 42.8-10.826 16.71 0 26.09 10.826 42.8 10.826 16.71 0 26.09-10.826 42.8-10.826 16.71 0 26.09 10.826 42.8 10.826 16.71 0 26.09-10.826 42.8-10.826 16.71 0 26.09 10.826 42.8 10.826 16.71 0 26.09-10.826 42.8-10.826 16.71 0 26.09 10.826 42.8 10.826 16.71 0 26.09-10.826 42.8-10.826 16.71 0 26.09 10.826 42.8 10.826 16.71 0 26.09-10.826 42.8-10.826 16.71 0 26.09 10.826 42.8 10.826m-2140 7.873c16.714 0 26.086-10.826 42.8-10.826s26.086 10.826 42.8 10.826S-90.314 17.73-73.6 17.73s26.086 10.826 42.8 10.826S-4.714 17.73 12 17.73s26.086 10.826 42.8 10.826S80.886 17.73 97.6 17.73s26.086 10.826 42.8 10.826 26.086-10.826 42.8-10.826 26.086 10.826 42.8 10.826 26.086-10.826 42.8-10.826 26.086 10.826 42.8 10.826 26.086-10.826 42.8-10.826 26.086 10.826 42.8 10.826S423.286 17.73 440 17.73s26.086 10.826 42.8 10.826 26.086-10.826 42.8-10.826 26.086 10.826 42.8 10.826 26.086-10.826 42.8-10.826 26.086 10.826 42.8 10.826 26.086-10.826 42.8-10.826 26.086 10.826 42.8 10.826 26.086-10.826 42.8-10.826 26.085 10.826 42.8 10.826c16.714 0 26.086-10.826 42.8-10.826s26.086 10.826 42.8 10.826 26.086-10.826 42.8-10.826 26.086 10.826 42.8 10.826c16.71 0 26.09-10.826 42.8-10.826 16.71 0 26.09 10.826 42.8 10.826 16.71 0 26.09-10.826 42.8-10.826 16.71 0 26.09 10.826 42.8 10.826 16.71 0 26.09-10.826 42.8-10.826 16.71 0 26.09 10.826 42.8 10.826 16.71 0 26.09-10.826 42.8-10.826 16.71 0 26.09 10.826 42.8 10.826 16.71 0 26.09-10.826 42.8-10.826 16.71 0 26.09 10.826 42.8 10.826 16.71 0 26.09-10.826 42.8-10.826 16.71 0 26.09 10.826 42.8 10.826 16.71 0 26.09-10.826 42.8-10.826 16.71 0 26.09 10.826 42.8 10.826 16.71 0 26.09-10.826 42.8-10.826 16.71 0 26.09 10.826 42.8 10.826 16.71 0 26.09-10.826 42.8-10.826 16.71 0 26.09 10.826 42.8 10.826 16.71 0 26.09-10.826 42.8-10.826 16.71 0 26.09 10.826 42.8 10.826 16.71 0 26.09-10.826 42.8-10.826 16.71 0 26.09 10.826 42.8 10.826m-2140 8.857c16.714 0 26.086-10.826 42.8-10.826s26.086 10.826 42.8 10.826 26.086-10.826 42.8-10.826 26.086 10.826 42.8 10.826S-4.714 26.587 12 26.587s26.086 10.826 42.8 10.826 26.086-10.826 42.8-10.826 26.086 10.826 42.8 10.826 26.086-10.826 42.8-10.826 26.086 10.826 42.8 10.826 26.086-10.826 42.8-10.826 26.086 10.826 42.8 10.826 26.086-10.826 42.8-10.826 26.086 10.826 42.8 10.826 26.086-10.826 42.8-10.826 26.086 10.826 42.8 10.826 26.086-10.826 42.8-10.826 26.086 10.826 42.8 10.826 26.086-10.826 42.8-10.826 26.086 10.826 42.8 10.826 26.086-10.826 42.8-10.826 26.086 10.826 42.8 10.826 26.086-10.826 42.8-10.826 26.085 10.826 42.8 10.826c16.714 0 26.086-10.826 42.8-10.826s26.086 10.826 42.8 10.826 26.086-10.826 42.8-10.826 26.086 10.826 42.8 10.826c16.71 0 26.09-10.826 42.8-10.826 16.71 0 26.09 10.826 42.8 10.826 16.71 0 26.09-10.826 42.8-10.826 16.71 0 26.09 10.826 42.8 10.826 16.71 0 26.09-10.826 42.8-10.826 16.71 0 26.09 10.826 42.8 10.826 16.71 0 26.09-10.826 42.8-10.826 16.71 0 26.09 10.826 42.8 10.826 16.71 0 26.09-10.826 42.8-10.826 16.71 0 26.09 10.826 42.8 10.826 16.71 0 26.09-10.826 42.8-10.826 16.71 0 26.09 10.826 42.8 10.826 16.71 0 26.09-10.826 42.8-10.826 16.71 0 26.09 10.826 42.8 10.826 16.71 0 26.09-10.826 42.8-10.826 16.71 0 26.09 10.826 42.8 10.826 16.71 0 26.09-10.826 42.8-10.826 16.71 0 26.09 10.826 42.8 10.826 16.71 0 26.09-10.826 42.8-10.826 16.71 0 26.09 10.826 42.8 10.826 16.71 0 26.09-10.826 42.8-10.826 16.71 0 26.09 10.826 42.8 10.826M-202 46.27c16.714 0 26.086-10.826 42.8-10.826s26.086 10.826 42.8 10.826 26.086-10.826 42.8-10.826S-47.514 46.27-30.8 46.27-4.714 35.444 12 35.444 38.086 46.27 54.8 46.27s26.086-10.826 42.8-10.826 26.086 10.826 42.8 10.826 26.086-10.826 42.8-10.826S209.286 46.27 226 46.27s26.086-10.826 42.8-10.826 26.086 10.826 42.8 10.826 26.086-10.826 42.8-10.826 26.086 10.826 42.8 10.826 26.086-10.826 42.8-10.826 26.086 10.826 42.8 10.826 26.086-10.826 42.8-10.826 26.086 10.826 42.8 10.826 26.086-10.826 42.8-10.826S637.286 46.27 654 46.27s26.086-10.826 42.8-10.826 26.086 10.826 42.8 10.826 26.086-10.826 42.8-10.826 26.085 10.826 42.8 10.826c16.714 0 26.086-10.826 42.8-10.826s26.086 10.826 42.8 10.826 26.086-10.826 42.8-10.826 26.086 10.826 42.8 10.826c16.71 0 26.09-10.826 42.8-10.826 16.71 0 26.09 10.826 42.8 10.826 16.71 0 26.09-10.826 42.8-10.826 16.71 0 26.09 10.826 42.8 10.826 16.71 0 26.09-10.826 42.8-10.826 16.71 0 26.09 10.826 42.8 10.826 16.71 0 26.09-10.826 42.8-10.826 16.71 0 26.09 10.826 42.8 10.826 16.71 0 26.09-10.826 42.8-10.826 16.71 0 26.09 10.826 42.8 10.826 16.71 0 26.09-10.826 42.8-10.826 16.71 0 26.09 10.826 42.8 10.826 16.71 0 26.09-10.826 42.8-10.826 16.71 0 26.09 10.826 42.8 10.826 16.71 0 26.09-10.826 42.8-10.826 16.71 0 26.09 10.826 42.8 10.826 16.71 0 26.09-10.826 42.8-10.826 16.71 0 26.09 10.826 42.8 10.826 16.71 0 26.09-10.826 42.8-10.826 16.71 0 26.09 10.826 42.8 10.826 16.71 0 26.09-10.826 42.8-10.826 16.71 0 26.09 10.826 42.8 10.826m-2140 7.873c16.714 0 26.086-9.841 42.8-9.841s26.086 9.84 42.8 9.84 26.086-9.84 42.8-9.84 26.086 9.84 42.8 9.84 26.086-9.84 42.8-9.84 26.086 9.84 42.8 9.84 26.086-9.84 42.8-9.84 26.086 9.84 42.8 9.84 26.086-9.84 42.8-9.84 26.086 9.84 42.8 9.84 26.086-9.84 42.8-9.84 26.086 9.84 42.8 9.84 26.086-9.84 42.8-9.84 26.086 9.84 42.8 9.84 26.086-9.84 42.8-9.84 26.086 9.84 42.8 9.84 26.086-9.84 42.8-9.84 26.086 9.84 42.8 9.84 26.086-9.84 42.8-9.84 26.086 9.84 42.8 9.84 26.086-9.84 42.8-9.84 26.086 9.84 42.8 9.84 26.086-9.84 42.8-9.84 26.085 9.84 42.8 9.84c16.714 0 26.086-9.84 42.8-9.84s26.086 9.84 42.8 9.84 26.086-9.84 42.8-9.84 26.086 9.84 42.8 9.84c16.71 0 26.09-9.84 42.8-9.84 16.71 0 26.09 9.84 42.8 9.84 16.71 0 26.09-9.84 42.8-9.84 16.71 0 26.09 9.84 42.8 9.84 16.71 0 26.09-9.84 42.8-9.84 16.71 0 26.09 9.84 42.8 9.84 16.71 0 26.09-9.84 42.8-9.84 16.71 0 26.09 9.84 42.8 9.84 16.71 0 26.09-9.84 42.8-9.84 16.71 0 26.09 9.84 42.8 9.84 16.71 0 26.09-9.84 42.8-9.84 16.71 0 26.09 9.84 42.8 9.84 16.71 0 26.09-9.84 42.8-9.84 16.71 0 26.09 9.84 42.8 9.84 16.71 0 26.09-9.84 42.8-9.84 16.71 0 26.09 9.84 42.8 9.84 16.71 0 26.09-9.84 42.8-9.84 16.71 0 26.09 9.84 42.8 9.84 16.71 0 26.09-9.84 42.8-9.84 16.71 0 26.09 9.84 42.8 9.84 16.71 0 26.09-9.84 42.8-9.84 16.71 0 26.09 9.84 42.8 9.84M-202 63c16.714 0 26.086-10.825 42.8-10.825S-133.114 63-116.4 63s26.086-10.825 42.8-10.825S-47.514 63-30.8 63-4.714 52.175 12 52.175 38.086 63 54.8 63s26.086-10.825 42.8-10.825S123.686 63 140.4 63s26.086-10.825 42.8-10.825S209.286 63 226 63s26.086-10.825 42.8-10.825S294.886 63 311.6 63s26.086-10.825 42.8-10.825S380.486 63 397.2 63s26.086-10.825 42.8-10.825S466.086 63 482.8 63s26.086-10.825 42.8-10.825S551.686 63 568.4 63s26.086-10.825 42.8-10.825S637.286 63 654 63s26.086-10.825 42.8-10.825S722.886 63 739.6 63s26.086-10.825 42.8-10.825S808.485 63 825.2 63c16.714 0 26.086-10.825 42.8-10.825S894.086 63 910.8 63s26.086-10.825 42.8-10.825S979.686 63 996.4 63c16.71 0 26.09-10.825 42.8-10.825 16.71 0 26.09 10.825 42.8 10.825 16.71 0 26.09-10.825 42.8-10.825 16.71 0 26.09 10.825 42.8 10.825 16.71 0 26.09-10.825 42.8-10.825 16.71 0 26.09 10.825 42.8 10.825 16.71 0 26.09-10.825 42.8-10.825 16.71 0 26.09 10.825 42.8 10.825 16.71 0 26.09-10.825 42.8-10.825 16.71 0 26.09 10.825 42.8 10.825 16.71 0 26.09-10.825 42.8-10.825 16.71 0 26.09 10.825 42.8 10.825 16.71 0 26.09-10.825 42.8-10.825 16.71 0 26.09 10.825 42.8 10.825 16.71 0 26.09-10.825 42.8-10.825 16.71 0 26.09 10.825 42.8 10.825 16.71 0 26.09-10.825 42.8-10.825 16.71 0 26.09 10.825 42.8 10.825 16.71 0 26.09-10.825 42.8-10.825 16.71 0 26.09 10.825 42.8 10.825 16.71 0 26.09-10.825 42.8-10.825 16.71 0 26.09 10.825 42.8 10.825" stroke="#626262" stroke-width="2"/></svg>