<svg width="45" height="44" fill="none" xmlns="http://www.w3.org/2000/svg"><path d="M10.23 27.802c.271.687.515 1.41.61 2.148.037.236.044.477.021.715-.028.201-.122.242.073.105.091-.064.11.02.093-.015a1.786 1.786 0 00-.186-.132 2.916 2.916 0 01-.441-.501 8.782 8.782 0 01-.994-1.844c-.275-.682-.515-1.416-.607-2.149a2.85 2.85 0 01-.022-.704c.025-.199.12-.251-.073-.116-.112.079-.139-.05.029.091.19.165.358.352.502.557.402.574.736 1.193.992 1.845.124.302.398.51.739.42.286-.076.542-.44.42-.74-.296-.725-.628-1.44-1.08-2.082-.304-.435-.664-.902-1.15-1.144-.428-.213-.917-.172-1.245.192-.361.402-.373 1.036-.33 1.543.135 1.547.743 3.131 1.572 4.432.443.693 1.556 2.165 2.494 1.289.413-.387.448-1.037.408-1.564-.07-.919-.335-1.811-.67-2.664-.276-.715-1.437-.405-1.154.318z" fill="#fff"/><path d="M10.907 27.2c.047 0 .085-.02.085-.044 0-.023-.038-.043-.085-.043-.047 0-.085.02-.085.043 0 .024.038.043.085.043z" stroke="#fff" stroke-miterlimit="10"/><path d="M12.027 27.295c.555 1.403 1.008 2.867 1.216 4.367.128.921.241 2.063-.131 2.943a1.46 1.46 0 01-.207.344.75.75 0 01-.214.153c-.177.071-.385.024-.614-.078-.82-.366-1.477-1.156-1.999-1.86-1.693-2.284-2.84-5.095-3.346-7.886-.188-1.037-.33-2.212-.03-3.243a1.73 1.73 0 01.176-.43.834.834 0 01.223-.252c.158-.108.312-.102.534-.034.843.258 1.601 1.159 2.14 1.875.936 1.245 1.667 2.656 2.25 4.098.123.303.4.51.74.42.286-.075.54-.439.419-.74-.6-1.487-1.319-2.938-2.264-4.239-.662-.91-1.459-1.896-2.501-2.389-.8-.38-1.735-.384-2.348.336-.722.846-.773 2.136-.71 3.19.094 1.684.523 3.35 1.102 4.93.57 1.56 1.287 3.081 2.218 4.46.87 1.289 3.113 4.204 4.934 2.664.91-.77.97-2.235.916-3.331-.097-1.931-.639-3.833-1.347-5.622-.28-.708-1.443-.397-1.157.324zM33.632 8.959c.06-.024.123-.042.187-.055.094-.019-.09.005.008 0h.086c.136.008.269.04.392.098.313.148.603.343.858.577.853.76 1.513 1.72 2.087 2.699a20.65 20.65 0 011.851 4.204c.412 1.303.73 2.664.755 4.039.01.524-.015 1.059-.178 1.561-.116.364-.245.554-.537.682-.293.128-.363.565-.216.822.176.31.526.344.822.217.93-.406 1.201-1.556 1.287-2.466.137-1.47-.16-3.001-.547-4.413a22.204 22.204 0 00-1.996-4.893c-.648-1.168-1.42-2.332-2.41-3.24-.709-.651-1.757-1.368-2.766-.993-.719.266-.408 1.43.32 1.16l-.003.001zM11.84 18.928a1.17 1.17 0 01.187-.055c.094-.02-.086.005.008 0h.086c.136.007.269.04.392.098.312.148.6.343.854.577.852.76 1.513 1.719 2.086 2.699a20.655 20.655 0 011.852 4.204c.411 1.302.729 2.664.755 4.039.01.524-.016 1.059-.178 1.561-.117.364-.245.554-.538.682-.293.128-.362.564-.215.822.176.31.526.344.822.217.929-.406 1.2-1.557 1.282-2.466.138-1.47-.16-3.002-.546-4.414A22.202 22.202 0 0016.699 22c-.648-1.168-1.42-2.332-2.41-3.24-.709-.651-1.757-1.368-2.766-.993-.72.266-.408 1.43.319 1.16h-.003z" fill="#fff"/><path d="M25.919 7.863c1.144-.442 2.342.063 3.361.76 1.493 1.018 2.68 2.497 3.658 3.999a25.458 25.458 0 013.03 6.599c.635 2.13 1.038 4.383.885 6.61-.096 1.4-.48 3.48-1.953 4.096-.3.126-.51.397-.418.74.074.283.44.545.739.42 1.582-.663 2.354-2.245 2.66-3.862.436-2.326.144-4.765-.407-7.047a26.858 26.858 0 00-3.032-7.42c-1.099-1.838-2.447-3.587-4.158-4.89-1.294-.982-3.061-1.792-4.685-1.165-.713.277-.403 1.44.32 1.16zM8.792 20.195c-.047-1.945.271-5.637 2.823-5.776 2.093-.115 4.001 1.849 5.233 3.351 2.126 2.596 3.583 5.809 4.41 9.045.408 1.586.66 3.218.641 4.86-.015 1.203-.157 2.492-.713 3.577-.5.977-1.33 1.648-2.468 1.586-1.716-.093-3.229-1.514-4.324-2.707-.525-.57-1.372.282-.849.85 1.182 1.29 2.678 2.587 4.437 2.96 1.287.274 2.615-.055 3.517-1.042.876-.955 1.287-2.254 1.464-3.515.242-1.705.123-3.432-.172-5.123-.646-3.726-2.186-7.44-4.434-10.484-1.493-2.022-3.667-4.383-6.354-4.562-1.347-.085-2.538.613-3.278 1.72-1.008 1.507-1.184 3.496-1.141 5.26.019.773 1.22.773 1.201 0h.007z" fill="#fff"/><path d="M7.605 21.101l4.375-2.234c.686-.352.086-1.39-.606-1.038L7 20.063c-.687.352-.086 1.39.606 1.038zm6.348 14.695l4.204-2.234c.687-.363.078-1.402-.605-1.038l-4.204 2.234c-.687.363-.078 1.402.605 1.038zM11.38 14.312l4.856-2.172 7.755-3.467 1.802-.806c.705-.315.095-1.352-.605-1.038L20.33 9l-7.75 3.468-1.802.806c-.704.314-.094 1.352.606 1.038h-.005zm9.952 22.859L26.189 35l7.755-3.468 1.802-.806c.704-.314.094-1.352-.606-1.038l-4.857 2.172-7.75 3.467-1.802.806c-.704.315-.094 1.352.606 1.038h-.005zM33.172 7.86l-1.802.86c-.698.332-.086 1.37.606 1.037l1.801-.859c.698-.333.086-1.37-.605-1.038zm6.177 14.781l-1.802.86c-.697.332-.085 1.37.606 1.038l1.802-.86c.697-.332.086-1.37-.606-1.038z" fill="#fff"/></svg>