<svg width="45" height="44" fill="none" xmlns="http://www.w3.org/2000/svg"><path d="M17.977 22.43c.023-2.168 1.373-4.197 3.44-4.929a5.288 5.288 0 015.831 1.594c1.397 1.678 1.569 4.142.46 6.016-1.11 1.874-3.37 2.905-5.515 2.464a5.291 5.291 0 01-3.014-1.827 5.31 5.31 0 01-1.201-3.318c-.008-.774-1.209-.774-1.201 0a6.54 6.54 0 001.173 3.677 6.52 6.52 0 003.04 2.372c2.487.945 5.45.149 7.143-1.907 1.729-2.1 2.004-5.133.581-7.477a6.512 6.512 0 00-2.927-2.553 6.495 6.495 0 00-3.856-.43c-2.985.582-5.124 3.31-5.154 6.318-.008.773 1.193.773 1.2 0z" fill="#fff"/><path d="M15.533 22.43c.023-3.184 2.022-6.141 5.037-7.227a7.756 7.756 0 018.59 2.366c2.044 2.473 2.267 6.102.618 8.84-1.649 2.738-4.92 4.199-8.05 3.571-3.579-.718-6.169-3.905-6.195-7.55-.005-.774-1.205-.774-1.2 0a9.016 9.016 0 001.631 5.099 8.986 8.986 0 004.233 3.268c3.476 1.28 7.56.146 9.883-2.743 2.323-2.889 2.659-7.016.735-10.21-1.935-3.21-5.745-4.862-9.406-4.125-4.094.825-7.047 4.56-7.076 8.71-.005.774 1.195.774 1.2 0z" fill="#fff"/><path d="M8.244 22.43c.024-6.221 3.97-11.974 9.836-14.094 5.934-2.149 12.675-.29 16.692 4.57 4.004 4.84 4.484 11.921 1.242 17.287-3.232 5.349-9.645 8.19-15.768 6.94-6.08-1.24-10.839-6.236-11.825-12.368a14.984 14.984 0 01-.177-2.335c0-.774-1.2-.774-1.2 0 .025 6.746 4.292 12.876 10.61 15.215 6.334 2.346 13.715.336 18.003-4.885 4.315-5.253 4.922-12.861 1.394-18.7-3.516-5.813-10.425-8.835-17.065-7.506-6.51 1.303-11.737 6.759-12.74 13.337a17.23 17.23 0 00-.202 2.539c-.003.773 1.198.773 1.2 0z" fill="#fff"/><path d="M5.929 22.43a17.343 17.343 0 011.808-7.72 17.305 17.305 0 015.053-6.102 17.258 17.258 0 0115.142-2.84 17.422 17.422 0 018.627 5.662c4.622 5.59 5.182 13.767 1.436 19.965a17.28 17.28 0 01-7.868 6.91 17.235 17.235 0 01-10.405 1.089c-6.989-1.45-12.464-7.217-13.59-14.276a17.407 17.407 0 01-.203-2.688c0-.774-1.2-.774-1.2 0 .012 3.816 1.183 7.592 3.4 10.703a18.713 18.713 0 008.729 6.691c7.247 2.681 15.68.384 20.585-5.586a18.55 18.55 0 00.079-23.528 18.48 18.48 0 00-6.66-5.139 18.658 18.658 0 00-11.34-1.29C12.076 5.776 6.11 12.016 4.96 19.537a19.575 19.575 0 00-.233 2.893c-.002.773 1.198.773 1.2 0z" fill="#fff"/><path d="M20.207 10.549c.02-1.255.787-2.42 1.984-2.847a3.02 3.02 0 013.44.996 3.036 3.036 0 01-1.422 4.721 3.02 3.02 0 01-3.415-1.076 3.037 3.037 0 01-.587-1.794c-.013-.774-1.213-.774-1.2 0a4.303 4.303 0 002.81 3.988c1.63.602 3.562.06 4.66-1.289 1.114-1.37 1.296-3.34.38-4.87a4.28 4.28 0 00-4.489-1.977c-1.958.388-3.33 2.183-3.361 4.148-.013.774 1.187.774 1.2 0zm0 23.719c.02-1.255.787-2.42 1.984-2.848a3.02 3.02 0 013.44.996 3.036 3.036 0 01-1.422 4.722 3.02 3.02 0 01-3.415-1.076 3.037 3.037 0 01-.587-1.794c-.013-.774-1.213-.774-1.2 0a4.289 4.289 0 002.811 3.988c1.629.602 3.561.06 4.659-1.29 1.114-1.37 1.296-3.339.38-4.87a4.28 4.28 0 00-4.489-1.976c-1.958.385-3.33 2.179-3.361 4.143-.013.779 1.187.779 1.2.005zM8.287 22.322c.02-1.254.786-2.419 1.984-2.847a3.02 3.02 0 013.44.996 3.037 3.037 0 01-1.422 4.722 3.02 3.02 0 01-3.416-1.077 3.037 3.037 0 01-.586-1.794c-.013-.773-1.213-.773-1.2 0a4.303 4.303 0 002.81 3.989c1.63.601 3.562.06 4.66-1.29 1.114-1.37 1.296-3.339.38-4.87a4.28 4.28 0 00-4.489-1.976c-1.958.387-3.33 2.183-3.362 4.147-.012.774 1.188.774 1.201 0zm23.84 0c.02-1.254.787-2.419 1.984-2.847a3.02 3.02 0 013.44.996 3.038 3.038 0 01-1.422 4.722 3.02 3.02 0 01-3.415-1.077 3.036 3.036 0 01-.587-1.794c-.013-.773-1.213-.773-1.2 0a4.302 4.302 0 002.81 3.989c1.63.601 3.562.06 4.66-1.29 1.115-1.37 1.296-3.339.38-4.87a4.28 4.28 0 00-4.489-1.976c-1.958.385-3.33 2.178-3.361 4.143-.013.778 1.187.778 1.2.004zM28.611 13.9c.02-1.254.787-2.419 1.984-2.847a3.02 3.02 0 013.44.996 3.037 3.037 0 01-1.422 4.722 3.021 3.021 0 01-3.415-1.077 3.037 3.037 0 01-.587-1.794c-.013-.773-1.213-.773-1.2 0a4.303 4.303 0 002.81 3.989c1.63.601 3.562.06 4.66-1.29 1.115-1.37 1.296-3.339.38-4.87a4.28 4.28 0 00-4.489-1.976c-1.958.385-3.33 2.179-3.361 4.143-.013.779 1.187.779 1.2.004zm-16.894.086c.02-1.254.787-2.419 1.984-2.847a3.02 3.02 0 013.44.996 3.037 3.037 0 01-1.422 4.722 3.02 3.02 0 01-3.415-1.077 3.037 3.037 0 01-.587-1.794c-.013-.773-1.213-.773-1.2 0a4.303 4.303 0 002.81 3.989c1.63.601 3.562.06 4.66-1.29 1.115-1.37 1.297-3.339.38-4.87a4.27 4.27 0 00-4.49-1.977c-1.957.386-3.329 2.18-3.36 4.144-.013.779 1.187.779 1.2.004zm.086 16.844c.02-1.255.786-2.42 1.984-2.847a3.02 3.02 0 013.44.996 3.037 3.037 0 01-1.422 4.722 3.02 3.02 0 01-3.415-1.077 3.038 3.038 0 01-.587-1.794c-.013-.773-1.213-.773-1.2 0a4.303 4.303 0 002.81 3.988c1.63.602 3.562.06 4.66-1.289 1.114-1.37 1.296-3.34.38-4.87a4.28 4.28 0 00-4.489-1.976c-1.958.385-3.33 2.178-3.362 4.143-.012.778 1.188.778 1.201.004zm16.894 0c.02-1.255.786-2.42 1.983-2.847a3.02 3.02 0 013.44.996A3.036 3.036 0 0132.7 33.7a3.02 3.02 0 01-3.416-1.077 3.038 3.038 0 01-.586-1.794c-.013-.773-1.213-.773-1.2 0a4.289 4.289 0 002.811 3.988c1.629.602 3.56.06 4.659-1.289 1.114-1.37 1.296-3.34.38-4.87a4.28 4.28 0 00-4.489-1.976c-1.958.385-3.33 2.178-3.362 4.143-.012.778 1.188.778 1.2.004z" fill="#fff"/></svg>