<svg width="44" height="44" fill="none" xmlns="http://www.w3.org/2000/svg"><path d="M12.934 29.064l-3.996 2.31-1.039.6c-.158.092-.328.226-.5.29-.271.1-.373-.071-.49-.275l-.618-1.069-.748-1.295c-.1-.172-.326-.43-.344-.645-.018-.228.213-.313.377-.407l.859-.498c1.452-.839 2.886-1.736 4.367-2.521.23-.122.38-.063.516.153.231.376.442.765.662 1.147l.797 1.38c.13.224.473.618.156.83-.64.43-.038 1.472.607 1.039.702-.47.926-1.289.525-2.044-.171-.317-.36-.623-.54-.935l-.859-1.491c-.161-.281-.308-.602-.522-.849-.487-.564-1.258-.636-1.89-.298-.23.122-.451.258-.675.39L6.77 26.493c-.668.386-1.356.748-2.006 1.159-.593.371-.914 1.044-.702 1.735.1.33.32.638.493.933.466.808.906 1.637 1.401 2.428.413.658 1.203.945 1.928.61.198-.092.386-.213.575-.322l5.081-2.934c.671-.387.067-1.427-.606-1.039z" fill="#fff"/><path d="M13.189 32.441l-1.952 1.128c-.272.157-.555.373-.848.49-.314.125-.408-.179-.542-.411-.113-.195-.57-.73-.439-.979.094-.18.458-.304.62-.398.734-.423 1.46-.905 2.218-1.28.33-.163.424.08.577.343.125.217.697.885.366 1.106-.64.43-.038 1.472.607 1.039.752-.505.875-1.332.445-2.095-.265-.47-.53-1.118-.99-1.426-1.041-.698-2.31.394-3.198.907-.378.219-.768.425-1.139.658-.702.446-.922 1.267-.53 2 .226.423.459.923.774 1.289.505.577 1.269.601 1.904.247.918-.516 1.822-1.051 2.732-1.577.673-.388.068-1.427-.605-1.04zm2.746 5.053l-1.36.784c-.257.147-.537.276-.773.448-.018.013-.134.057-.139.08.03-.147.486.322.49.086 0-.046-.095-.164-.115-.2l-.242-.419c-.046-.08-.122-.298-.2-.344-.164-.102-.027.496-.146.478.016 0 .046-.032.062-.036.1-.043.194-.098.282-.162l1.719-.99c.024-.015.196-.086.2-.117-.03.157-.552-.36-.478-.065a.857.857 0 00.104.18l.281.488c.039.078.082.154.13.226.172.216-.257-.008.069-.338-.548.55.303 1.4.85.85.465-.467.224-.94-.05-1.413-.194-.338-.382-.829-.756-1-.407-.186-.741.025-1.08.221l-1.176.678c-.253.146-.525.278-.765.442-.5.344-.463.852-.193 1.32.176.305.332.646.547.926.344.444.83.376 1.257.13l2.094-1.21c.666-.392.061-1.432-.612-1.043z" fill="#fff"/><path d="M12.417 33.586l2.069 3.583.215-.823-1.437.83.823.215-2.069-3.582-.215.824 1.436-.83c.67-.387.066-1.428-.606-1.04l-1.438.83a.612.612 0 00-.216.824L13.048 38a.612.612 0 00.823.215l1.438-.832a.611.611 0 00.216-.824l-2.069-3.582c-.387-.664-1.425-.063-1.039.61zm18.399-16.939l-6.093 3.517-9.71 5.606-2.23 1.29.823.216-.83-1.438-.216.823 6.088-3.519 9.711-5.607 2.235-1.288-.823-.216.83 1.437c.387.67 1.427.065 1.039-.607l-.83-1.438a.611.611 0 00-.823-.216l-6.096 3.52-9.711 5.605-2.23 1.29a.612.612 0 00-.216.823l.83 1.436a.61.61 0 00.823.216l6.094-3.519 9.711-5.607 2.23-1.288c.67-.385.066-1.424-.607-1.036z" fill="#fff"/><path d="M30.52 14.173l3.927-2.268c.481-.278.975-.647 1.49-.86.306-.127.45.075.585.31l.62 1.073.696 1.203c.102.172.328.443.329.661 0 .243-.227.334-.404.436l-.854.492-2.505 1.452c-.587.338-1.166.726-1.774 1.024-.258.127-.44.066-.588-.179-.22-.36-.423-.732-.634-1.098l-.8-1.386c-.152-.258-.448-.62-.086-.86.642-.429.04-1.468-.608-1.038-.73.484-.971 1.346-.56 2.13.159.303.343.595.515.891l.817 1.413c.164.285.313.602.527.86.504.591 1.316.687 1.984.33.217-.116.43-.247.64-.37l2.746-1.585c.659-.38 1.337-.74 1.982-1.144.572-.358.915-.987.774-1.668-.077-.37-.307-.7-.493-1.02-.458-.793-.89-1.606-1.375-2.381-.402-.641-1.154-.962-1.885-.7-.237.1-.464.222-.68.362l-4.993 2.883c-.671.385-.066 1.425.607 1.037z" fill="#fff"/><path d="M30.25 10.806l1.907-1.101c.263-.152.53-.348.81-.468.343-.147.455.172.601.421.126.22.561.715.376.984-.118.171-.438.282-.607.379-.717.414-1.422.882-2.164 1.25-.36.177-.48-.125-.638-.4-.143-.247-.65-.822-.282-1.065.642-.43.04-1.469-.608-1.04-.753.5-.918 1.358-.485 2.13.258.46.51 1.06.952 1.375 1.05.744 2.29-.318 3.196-.84.374-.217.76-.42 1.127-.652a1.524 1.524 0 00.56-2.053c-.21-.4-.436-.866-.732-1.211-.5-.586-1.289-.648-1.94-.29-.902.497-1.786 1.03-2.678 1.546-.676.382-.07 1.423.605 1.035zm-2.897-4.967l1.535-.886c.265-.154.588-.287.83-.48.017-.014.076-.03.085-.05.071-.133-.653-.076-.651-.181 0 .086.152.263.194.336l.29.492c.051.086.134.323.22.383.132.092.086-.646.188-.644-.023 0-.052.034-.073.042a2.212 2.212 0 00-.332.192l-1.89 1.093a.478.478 0 00-.126.072c-.18.224.663.007.637.2.01-.075-.161-.278-.199-.344l-.344-.597c-.04-.07-.078-.147-.124-.214-.172-.252.217.055-.022.366.2-.257.038-.67-.215-.823-.308-.184-.627-.04-.824.216-.33.43.067.925.286 1.304.19.331.38.84.755.997.376.158.717-.1 1.031-.28l1.262-.729c.262-.15.553-.284.8-.461.515-.367.327-.839.072-1.28-.179-.31-.336-.655-.546-.946-.343-.477-.796-.344-1.219-.104L26.746 4.8c-.67.387-.066 1.427.607 1.039z" fill="#fff"/><path d="M30.973 9.688l-2.069-3.586-.215.823 1.437-.823-.821-.22 2.068 3.583.216-.823-1.437.83c-.67.387-.065 1.427.607 1.039l1.438-.83a.61.61 0 00.215-.823l-2.07-3.583a.612.612 0 00-.823-.216l-1.437.83a.611.611 0 00-.216.824l2.069 3.582c.386.67 1.426.066 1.038-.607z" fill="#fff"/></svg>