<svg width="44" height="44" fill="none" xmlns="http://www.w3.org/2000/svg"><path d="M31.24 6.408l-3.392 3.393h.855l-1.999-1.994v.85l3.393-3.392h-.85l1.994 1.994c.548.548 1.399-.302.85-.85l-1.994-1.995a.612.612 0 00-.85 0l-3.394 3.393a.611.611 0 000 .85l1.995 2a.611.611 0 00.85 0l3.394-3.394c.548-.552-.303-1.403-.851-.855zM17.922 33.22l-4.695 4.695-.676.675h.855l-1.994-1.994v.85l3.75-3.749c.547-.548-.303-1.4-.852-.85l-3.75 3.749a.611.611 0 000 .85l1.991 2a.61.61 0 00.851 0l4.696-4.696.675-.676c.548-.548-.302-1.399-.85-.85v-.005z" fill="#fff"/><path d="M12.97 29.31c.593.587 1.203 1.16 1.781 1.762.156.161.377.332.468.543.068.159-.07.325-.212.51-.33.43-.738.8-1.124 1.18-.553.544.298 1.394.851.85.481-.473.977-.938 1.365-1.494.54-.773.37-1.518-.248-2.178-.652-.697-1.352-1.352-2.03-2.023-.552-.545-1.403.305-.851.85zm19.26-14.868l-4.187 4.188-6.645 6.646-1.54 1.54h.853l-6.703-6.702-.957-.958v.851l4.187-4.188 6.647-6.646 1.54-1.541h-.85l6.703 6.703.953.962c.548.548 1.399-.303.85-.851l-6.703-6.703-.959-.963a.61.61 0 00-.85 0l-4.188 4.187-6.646 6.65-1.541 1.541a.61.61 0 000 .85l6.703 6.704.959.96a.61.61 0 00.85 0l4.188-4.188 6.645-6.65 1.547-1.537c.544-.553-.307-1.404-.855-.855z" fill="#fff"/><path d="M14.837 22.184a7.85 7.85 0 00-2.234 2.114c-.457.649-.769 1.411-.806 2.21-.047.97.378 1.837.967 2.578.204.258.637.21.851 0 .258-.248.201-.601 0-.85-.891-1.118-.704-2.396.134-3.477a7.284 7.284 0 011.694-1.535c.656-.409.052-1.45-.608-1.04h.002zm3.726 12.12c.678-.672 1.117-1.56 1.159-2.52.045-1.153-.559-2.183-1.375-2.948-.566-.527-1.418.322-.851.851.595.555 1.065 1.25 1.025 2.096-.03.645-.355 1.223-.807 1.67-.55.545.3 1.395.851.85h-.003z" fill="#fff"/><path d="M18.172 28.664c-.586-.57-1.192-1.126-1.755-1.718a1.275 1.275 0 01-.216-.278c-.028-.053-.03-.156-.04-.102.057-.296.462-.501.665-.68.292-.259.556-.561.83-.839.545-.55-.305-1.402-.85-.85-.369.37-.736.725-1.125 1.069-.612.534-.951 1.294-.498 2.044.282.467.73.835 1.118 1.213l1.019.993c.555.54 1.407-.31.85-.85l.002-.002zM23.938 7l7.814 7.814 1.123 1.123c.549.548 1.4-.302.851-.85l-7.814-7.815-1.123-1.123c-.549-.548-1.4.302-.851.85z" fill="#fff"/><path d="M11.563 19.375l7.814 7.814 1.123 1.123c.549.548 1.4-.302.851-.85l-7.814-7.815-1.123-1.123c-.549-.549-1.4.302-.851.85z" fill="#fff"/></svg>