<svg width="403" height="95" viewBox="0 0 403 95" fill="none" xmlns="http://www.w3.org/2000/svg">
<g filter="url(#filter0_d_6_410)">
<g filter="url(#filter1_i_6_410)">
<rect x="4" width="395" height="87" rx="11" fill="#2194FF"/>
</g>
<rect x="6" y="2" width="391" height="83" rx="9" stroke="url(#paint0_linear_6_410)" stroke-width="4"/>
<path opacity="0.31" d="M390 29.3339V17.5105C389.928 15.2613 389.05 13.1313 387.553 11.5729C386.055 10.0146 384.056 9.15076 381.981 9.16512H20.7151C19.7032 9.16381 18.7009 9.37863 17.7655 9.79731C16.8301 10.216 15.9799 10.8304 15.2635 11.6053C14.5471 12.3802 13.9785 13.3006 13.5901 14.3138C13.2017 15.327 13.0012 16.4132 13 17.5105V53.1807C13 53.1807 61.4569 35.0108 164.611 28.7642C260.502 22.9575 390 29.3339 390 29.3339Z" fill="url(#paint1_linear_6_410)"/>
<path opacity="0.15" d="M16 78.1896H382.29C383.302 78.1909 384.304 77.976 385.24 77.5571C386.175 77.1382 387.025 76.5236 387.741 75.7484C388.457 74.9731 389.025 74.0525 389.413 73.0392C389.8 72.0258 390 70.9396 390 69.8427V52.1803C390 52.1803 374.662 68.6346 291.434 72.0392C218.669 75.0345 16 78.1896 16 78.1896Z" fill="white"/>
</g>
<defs>
<filter id="filter0_d_6_410" x="0" y="0" width="403" height="95" filterUnits="userSpaceOnUse" color-interpolation-filters="sRGB">
<feFlood flood-opacity="0" result="BackgroundImageFix"/>
<feColorMatrix in="SourceAlpha" type="matrix" values="0 0 0 0 0 0 0 0 0 0 0 0 0 0 0 0 0 0 127 0" result="hardAlpha"/>
<feOffset dy="4"/>
<feGaussianBlur stdDeviation="2"/>
<feComposite in2="hardAlpha" operator="out"/>
<feColorMatrix type="matrix" values="0 0 0 0 0 0 0 0 0 0 0 0 0 0 0 0 0 0 0.25 0"/>
<feBlend mode="normal" in2="BackgroundImageFix" result="effect1_dropShadow_6_410"/>
<feBlend mode="normal" in="SourceGraphic" in2="effect1_dropShadow_6_410" result="shape"/>
</filter>
<filter id="filter1_i_6_410" x="4" y="0" width="395" height="91" filterUnits="userSpaceOnUse" color-interpolation-filters="sRGB">
<feFlood flood-opacity="0" result="BackgroundImageFix"/>
<feBlend mode="normal" in="SourceGraphic" in2="BackgroundImageFix" result="shape"/>
<feColorMatrix in="SourceAlpha" type="matrix" values="0 0 0 0 0 0 0 0 0 0 0 0 0 0 0 0 0 0 127 0" result="hardAlpha"/>
<feOffset dy="4"/>
<feGaussianBlur stdDeviation="6"/>
<feComposite in2="hardAlpha" operator="arithmetic" k2="-1" k3="1"/>
<feColorMatrix type="matrix" values="0 0 0 0 0 0 0 0 0 0 0 0 0 0 0 0 0 0 0.45 0"/>
<feBlend mode="normal" in2="shape" result="effect1_innerShadow_6_410"/>
</filter>
<linearGradient id="paint0_linear_6_410" x1="4" y1="32" x2="399" y2="32" gradientUnits="userSpaceOnUse">
<stop stop-color="#2194FF"/>
<stop offset="0.522421" stop-color="#81C0FB"/>
<stop offset="1" stop-color="#108CFF"/>
</linearGradient>
<linearGradient id="paint1_linear_6_410" x1="201.5" y1="-0.269633" x2="201.5" y2="63.5949" gradientUnits="userSpaceOnUse">
<stop stop-color="#81C0FB"/>
<stop offset="1" stop-color="white"/>
</linearGradient>
</defs>
</svg>
